<ttFont>
          <CharString index="0">
            54 0 221 callsubr
            130 65 17 68 -44 62 hintmask 1011000110000000
            hintmask 1010100110000000
            46 635 rmoveto
            hintmask 0111000110000000
            -81 callsubr
            hintmask 1011000110100000
            -46 callgsubr
            hintmask 0111000110100000
            -56 callsubr
            hintmask 1011000110100000
            -107 callgsubr
            hintmask 1011000111000000
            -85 callgsubr
            hintmask 1010001111000000
            -22 callsubr
            hintmask 1011000110000000
            140 callsubr
            return
          </CharString>
          <CharString index="1">
            125 callsubr
            226 -140 146 -217 -217 -140 -146 -226 -225 140 -146 217 217 140 146 225 vhcurveto
            -534 hmoveto
            -86 callsubr
            return
          </CharString>
          <CharString index="2">
            12 144 -60 4 -2 -13 -3 -15 -3 -11 rlinecurve
            -3 -8 -3 -12 -8 -16 rrcurveto
            -3 -15 -19 -2 -21 hhcurveto
            -89 hlineto
            15 -1 36 28 vvcurveto
            73 35 vlineto
            15 27 -5 0 hvcurveto
            7 -42 56 4 rlineto
            0 -2 66 38 vvcurveto
            return
          </CharString>
          <CharString index="3">
            519 244 rmoveto
            167 -88 92 -159 88 callgsubr
            159 88 93 166 vhcurveto
            -78 callsubr
            return
          </CharString>
          <CharString index="4">
            -20 -8 -56 -1 128 callsubr
            5 47 113 81 -31 callsubr
            return
          </CharString>
          <CharString index="5">
            2 -15 7 -46 -50 vvcurveto
            -252 vlineto
            -100 -36 -61 -105 -95 -51 71 90 vhcurveto
            282 vlineto
            20 6 50 3 11 vhcurveto
            66 6 -5 81 rlineto
            return
          </CharString>
          <CharString index="6">
            -53 callgsubr
            hstemhm
            1 667 hintmask 01011100
            hintmask 10011100
            -72 callsubr
            hintmask 01011100
            -28 callsubr
            hintmask 00111100
            -8 callgsubr
            hintmask 01011100
            -9 callsubr
            hintmask 00111100
            -67 callgsubr
            hintmask 01011100
            -49 callgsubr
            hintmask 00111100
            35 49 -5 0 hvcurveto
            return
          </CharString>
          <CharString index="7">
            150 0 89 callsubr
            174 callsubr
            hintmask 10010011
            710 637 rmoveto
            hintmask 10000111
            -5 73 rlineto
            0 -64 -5 -83 vhcurveto
            hintmask 10010011
            -47 -63 5 0 hvcurveto
            -5 -70 rlineto
            hintmask 10000111
            44 -12 rlineto
            hintmask 10001011
            0 0 -30 -4 -8 vhcurveto
            hintmask 10100011
            11 callgsubr
            hintmask 10010011
            0 -95 -29 callsubr
            hintmask 10000111
            -37 -55 5 0 hvcurveto
            -5 -70 rlineto
            hintmask 10010011
            60 -9 rlineto
            0 34 -30 14 -24 vhcurveto
            hintmask 10000111
            178 -328 rlineto
            hintmask 01010011
            -86 vlineto
            155 callgsubr
            hintmask 10010011
            57 vlineto
            153 294 rlineto
            hintmask 01010011
            17 32 45 54 0 vvcurveto
            return
          </CharString>
          <CharString index="8">
            25 callsubr
            hintmask 1001011100000000
            308 429 rmoveto
            131 callsubr
            hintmask 0101011100000000
            -90 -48 -48 -50 -52 -21 40 52 vhcurveto
            107 vlineto
            50 10 132 0 vhcurveto
            -45 callgsubr
            hintmask 0100111100000000
            -89 callsubr
            hintmask 0011011100000000
            -45 callsubr
            hintmask 1001011010000000
            6 76 -60 6 rlineto
            hintmask 1001011100000000
            0 -9 66 50 vvcurveto
            102 vlineto
            -95 callsubr
            return
          </CharString>
          <CharString index="9">
            132 hintmask 11011001
            hintmask 10111001
            749 198 callgsubr
            -58 -29 callsubr
            hintmask 11011001
            -93 callsubr
            hintmask 10111001
            65 -12 rlineto
            hintmask 11011001
            -102 callsubr
            281 callgsubr
            vhcurveto
            hintmask 10111001
            -93 callsubr
            hintmask 11011001
            65 -12 rlineto
            3 -14 6 -47 -50 vvcurveto
            hintmask 10111001
            -244 vlineto
            hintmask 11011001
            -171 98 -112 191 190 100 112 171 vhcurveto
            274 vlineto
            20 6 47 3 14 186 callgsubr
            return
          </CharString>
          <CharString index="10">
            198 -143 198 143 -52 58 -67 -53 -10 -5 -37 -22 -32 -20 rlinecurve
            -32 19 -37 23 -10 5 rrcurveto
            return
          </CharString>
          <CharString index="11">
            467 21 -21 628 77 -73 72 -69 69 6 -20 hstemhm
            2 1022 -50 47 hintmask 10100100
            hintmask 10100010
            1024 637 rmoveto
            hintmask 10001010
            -5 73 rlineto
            0 -64 -5 -83 vhcurveto
            hintmask 10100100
            -47 -63 5 0 hvcurveto
            -5 -70 rlineto
            hintmask 10001100
            64 -12 rlineto
            hintmask 11000100
            0 4 -16 -6 -22 vhcurveto
            -101 -383 -131 468 rlineto
            -113 hlineto
            -133 -468 -90 369 rlineto
            -6 26 2 26 0 vvcurveto
            hintmask 10100100
            65 9 -5 73 rlineto
            0 -95 -29 callsubr
            hintmask 10001100
            -37 -55 5 0 hvcurveto
            -5 -70 rlineto
            hintmask 10100100
            60 -9 rlineto
            0 13 -23 10 -31 vhcurveto
            hintmask 10001100
            183 -577 rlineto
            hintmask 10010100
            115 hlineto
            134 423 128 -423 rlineto
            115 hlineto
            174 544 rlineto
            13 40 27 46 0 vvcurveto
            return
          </CharString>
          <CharString index="12">
            50 10 132 0 108 callgsubr
            9 0 hvcurveto
            return
          </CharString>
          <CharString index="13">
            0 10 -70 -20 vvcurveto
            -151 vlineto
            -116 60 -62 116 65 44 32 50 36 vhcurveto
            9 -78 rlineto
            return
          </CharString>
          <CharString index="14">
            -47 -53 -79 callsubr
            return
          </CharString>
          <CharString index="15">
            -123 -26 -51 -62 -62 -26 51 123 123 26 51 62 62 26 -51 -123 vhcurveto
            return
          </CharString>
          <CharString index="16">
            46 0 59 -59 63 -46 -21 471 163 callgsubr
            122 219 -210 243 hintmask 01010101
            613 61 rmoveto
            -28 4 -13 13 -15 13 -5 7 rlinecurve
            -51 61 -53 61 -52 61 rrcurveto
            hintmask 01010110
            98 134 13 15 17 16 19 19 rlinecurve
            37 4 rlineto
            hintmask 01001110
            -4 71 rlineto
            0 -46 -4 -98 vhcurveto
            hintmask 01010110
            -48 30 callsubr
            hintmask 01001110
            15 -3 -17 -32 -117 -171 rlineto
            0 93 -125 17 -18 vhcurveto
            41 -64 rlineto
            hintmask 10010101
            -22 -3 3 -62 rlineto
            0 12 4 48 vhcurveto
            hintmask 00110101
            99 81 -4 0 hvcurveto
            -327 544 rmoveto
            hintmask 01010101
            0 -70 -4 -100 -48 -17 4 0 vhcurveto
            hintmask 00101101
            -4 -66 41 204 callgsubr
            hintmask 01010101
            257 callgsubr
            hintmask 01001101
            -42 3 callgsubr
            17 4 48 99 66 -4 0 vhcurveto
            3 65 -35 34 callgsubr
            hintmask 00110101
            73 callsubr
            hintmask 01010101
            43 4 rlineto
            return
          </CharString>
          <CharString index="17">
            287 callsubr
            -74 callgsubr
            endchar
          </CharString>
          <CharString index="18">
            -9 -74 55 -14 rlineto
            -94 callsubr
            return
          </CharString>
          <CharString index="19">
            215 callgsubr
            hintmask 0101010001111000
            hintmask 1001001001111000
            -87 callsubr
            hintmask 0011010001111000
            4 -62 rlineto
            hintmask 0101010001111000
            -46 callsubr
            hintmask 0011010001111000
            14 14 rlineto
            hintmask 0101010001111000
            -105 callsubr
            hintmask 0100110001111000
            -34 callsubr
            hintmask 0101010001111000
            -21 callsubr
            hintmask 0101010001110100
            -86 callgsubr
            hintmask 0101000011110100
            -21 callgsubr
            hintmask 0101010001110100
            141 callsubr
            return
          </CharString>
          <CharString index="20">
            40 474 rmoveto
            45 -9 rlineto
            6 -20 1 -27 -23 callgsubr
            -4 -46 -3 112 callsubr
            rlineto
            return
          </CharString>
          <CharString index="21">
            187 57 88 120 120 57 -88 -187 -186 -57 -88 -120 -120 -57 88 186 vhcurveto
            return
          </CharString>
          <CharString index="22">
            rmoveto
            -71 vlineto
            -40 -10 -27 -24 -35 hhcurveto
            -37 -17 20 41 37 15 18 37 7 hvcurveto
            return
          </CharString>
          <CharString index="23">
            11 -15 97 545 93 hstemhm
            51 91 -91 165 153 165 -125 90 hintmask 11011000
            hintmask 11101000
            59 226 rmoveto
            -15 -193 rlineto
            0 98 -48 135 144 113 82 137 vhcurveto
            hintmask 11011000
            230 -318 -22 134 vvcurveto
            51 40 30 60 vhcurveto
            hintmask 11010100
            36 23 -11 -12 22 hvcurveto
            7 -17 5 -13 -4 vvcurveto
            -74 vlineto
            83 -5 14 193 rlineto
            21 -70 -80 15 -70 hhcurveto
            -136 -99 -76 -123 hvcurveto
            hintmask 11011000
            -238 318 30 -147 vvcurveto
            -57 -47 -27 -57 vhcurveto
            hintmask 11101000
            -51 -36 17 11 -21 hvcurveto
            -7 17 -7 18 6 vvcurveto
            12 -1 58 0 vhcurveto
            return
          </CharString>
          <CharString index="24">
            -77 callgsubr
            265 callgsubr
            vhcurveto
            return
          </CharString>
          <CharString index="25" raw="1">
            400ac00b   
          </CharString>
          <CharString index="26">
            65 -12 rlineto
            5 -21 4 -40 184 callsubr
            -6 -56 -3 -1 callgsubr
            return
          </CharString>
          <CharString index="27">
            75 -15 93 549 304 callsubr
            294 86 -68 79 hintmask 11110000
            hintmask 11101000
            594 191 rmoveto
            -75 -2 rlineto
            0 -2 -36 -1 -11 vhcurveto
            -8 -14 -34 -2 -7 vhcurveto
            -10 -45 -36 -5 -43 hhcurveto
            -123 -46 122 153 153 47 121 123 hvcurveto
            hintmask 11110000
            39 32 -5 -9 41 hvcurveto
            5 -13 7 -22 -6 vvcurveto
            3 -61 77 -4 12 179 rlineto
            16 -65 -65 18 -86 hhcurveto
            -232 -118 -150 -218 -218 118 -149 232 hvcurveto
            hintmask 11101000
            85 75 18 16 65 hvcurveto
            return
          </CharString>
          <CharString index="28">
            5 0 hvcurveto
            -5 -75 rlineto
            return
          </CharString>
          <CharString index="29">
            -159 hmoveto
            -92 callsubr
            return
          </CharString>
          <CharString index="30">
            147 38 45 80 81 38 -45 -147 -147 -38 -45 -81 -80 -38 45 147 vhcurveto
            return
          </CharString>
          <CharString index="31">
            240 0 74 -58 -21 628 82 -79 84 -25 20 302 callsubr
            333 127 hintmask 10010110
            132 callgsubr
            hintmask 10001110
            -100 5 rlineto
            hintmask 10010110
            -5 -75 rlineto
            hintmask 10100110
            17 callsubr
            hintmask 10001110
            -19 20 rlineto
            -102 hlineto
            -93 callsubr
            hintmask 10010110
            65 -12 rlineto
            hintmask 01100110
            -22 callgsubr
            hintmask 10010110
            152 callgsubr
            hintmask 01010110
            257 vlineto
            hintmask 10010110
            280 callgsubr
            135 542 hlineto
            151 callsubr
            return
          </CharString>
          <CharString index="32">
            -12 236 callsubr
            return
          </CharString>
          <CharString index="33">
            -40 -5 -36 -19 -45 hhcurveto
            -45 -36 19 40 -5 hvcurveto
            -68 hlineto
            -79 5 66 -49 83 hhcurveto
            83 66 49 79 5 hvcurveto
            return
          </CharString>
          <CharString index="34">
            -20 -91 callgsubr
            return
          </CharString>
          <CharString index="35">
            668 65 rmoveto
            -56 9 -23 54 -200 588 -112 -11 rlineto
            return
          </CharString>
          <CharString index="36">
            -28 44 -59 callgsubr
            return
          </CharString>
          <CharString index="37">
            2 -16 7 -45 -50 -92 callgsubr
            113 return
          </CharString>
          <CharString index="38">
            38 -42 hhcurveto
            -59 callsubr
            return
          </CharString>
          <CharString index="39">
            1 -14 6 91 callsubr
            -7 -46 -7 vvcurveto
            -46 3 callgsubr
            23 4 47 vhcurveto
            return
          </CharString>
          <CharString index="40">
            -48 callsubr
            5 -70 rlineto
            0 53 5 47 return
          </CharString>
          <CharString index="41">
            rmoveto
            43 20 -38 -76 -2 -1 -6 0 hvcurveto
            -133 -8 rlineto
            76 4 15 54 52 hhcurveto
            return
          </CharString>
          <CharString index="42">
            54 135 callgsubr
            65 221 callsubr
            -12 154 -12 124 callsubr
            hintmask 0101100010100000
            hintmask 0101010010100000
            46 635 rmoveto
            hintmask 0011100010100000
            -81 callsubr
            hintmask 0101100010101000
            -46 callgsubr
            hintmask 0011100010101000
            -56 callsubr
            hintmask 0101100010101000
            -107 callgsubr
            hintmask 0101100010110000
            -85 callgsubr
            hintmask 0101000110110000
            -22 callsubr
            hintmask 0101100010100000
            140 callsubr
            289 -775 rmoveto
            -50 -27 -32 -46 hvcurveto
            hintmask 0101001010100000
            130 callsubr
            vhcurveto
            hintmask 1101100001000000
            -55 callsubr
            return
          </CharString>
          <CharString index="43">
            63 49 39 28 39 -28 63 -49 49 39 rlineto
            return
          </CharString>
          <CharString index="44">
            hintmask 01011001
            hintmask 10011001
            -72 callsubr
            hintmask 01011001
            -28 callsubr
            hintmask 00111001
            -8 callgsubr
            hintmask 01011001
            -9 callsubr
            hintmask 00111001
            -67 callgsubr
            hintmask 01011001
            -49 callgsubr
            hintmask 00111001
            35 49 -5 0 hvcurveto
            return
          </CharString>
          <CharString index="45">
            270 503 rmoveto
            -152 -93 -98 -160 -169 87 -91 163 64 66 26 45 51 262 callsubr
            -32 -69 -80 -40 54 109 123 30 56 65 21 26 -10 -16 18 vhcurveto
            2 -13 1 -13 1 -13 -1 -54 rcurveline
            85 -3 15 177 rlineto
            0 -89 24 -88 vhcurveto
            return
          </CharString>
          <CharString index="46">
            111 callgsubr
            176 callgsubr
            354 180 -54 103 hintmask 11110000
            hintmask 11101000
            -42 callsubr
            hintmask 11110000
            217 140 146 225 99 -28 84 -49 63 hvcurveto
            hintmask 11101000
            18 callsubr
            hintmask 11110000
            120 57 -88 -187 -186 -57 -88 -120 hvcurveto
            hintmask 11101000
            -120 -57 88 186 hvcurveto
            return
          </CharString>
          <CharString index="47">
            50 callsubr
            -58 callsubr
            return
          </CharString>
          <CharString index="48">
            -43 -46 -32 callsubr
            24 vhcurveto
            return
          </CharString>
          <CharString index="49">
            -31 callgsubr
            -21 19 return
          </CharString>
          <CharString index="50">
            -65 6 rlineto
            -2 14 -7 52 50 vvcurveto
            return
          </CharString>
          <CharString index="51">
            282 callgsubr
            -70 5 -2 -16 -6 -26 -4 -15 rlinecurve
            return
          </CharString>
          <CharString index="52">
            50 27 31 46 49 -29 29 -48 hvcurveto
            return
          </CharString>
          <CharString index="53">
            237 callgsubr
            195 callgsubr
          </CharString>
          <CharString index="54">
            -41 -11 -6 -6 -18 hvcurveto
            15 -42 rlineto
            0 21 9 15 10 8 -5 -9 vhcurveto
            return
          </CharString>
          <CharString index="55">
            110 callgsubr
            272 255 callsubr
            hintmask 1000011110000000
            hintmask 1000101110100000
            63 callgsubr
            hintmask 1000101110000000
            174 callgsubr
            hintmask 1000011110000000
            -9 -74 rlineto
            hintmask 0101001110000000
            4 callgsubr
            hintmask 1000101110000000
            -45 callgsubr
            -9 -74 rlineto
            hintmask 1000011110000000
            55 -14 rlineto
            hintmask 0101001110000000
            -94 callsubr
            -45 callsubr
            hintmask 0010011110000000
            6 76 rlineto
            hintmask 1000011101000000
            121 callgsubr
            hintmask 1000011110000000
            39 callgsubr
            hintmask 1000011110100000
            return
          </CharString>
          <CharString index="56">
            29 -52 63 30 8 3 37 11 26 7 rlinecurve
            26 -7 37 -11 8 -3 63 -30 rcurveline
            29 52 rlineto
            -57 193 rmoveto
            return
          </CharString>
          <CharString index="57">
            46 callgsubr
            111 callsubr
            return
          </CharString>
          <CharString index="58">
            -244 vlineto
            -171 98 -112 191 190 100 112 171 vhcurveto
            274 vlineto
            22 6 53 3 16 vhcurveto
            116 5 31 55 84 148 callgsubr
          </CharString>
          <CharString index="59">
            -50 callsubr
            -66 -12 return
          </CharString>
          <CharString index="60">
            rmoveto
            -207 132 -42 callgsubr
            return
          </CharString>
          <CharString index="61">
            102 callgsubr
            235 hlineto
            15 73 -3 0 hvcurveto
            return
          </CharString>
          <CharString index="62">
            135 49 -5 0 hvcurveto
            return
          </CharString>
          <CharString index="63">
            -38 43 hhcurveto
            43 45 101 0 hvcurveto
            endchar
          </CharString>
          <CharString index="64">
            -18 callsubr
            4 -62 rlineto
            return
          </CharString>
          <CharString index="65">
            664 775 rmoveto
            0 23 -47 -30 vvcurveto
            -25 -23 -18 -56 -1 vhcurveto
            45 -59 -76 25 -89 hhcurveto
            -217 -140 -146 -226 -225 140 -146 217 hvcurveto
            return
          </CharString>
          <CharString index="66">
            hintmask 10101000
            756 71 rmoveto
            -48 6 -20 18 -25 22 -10 12 rlinecurve
            -67 80 -70 81 -68 80 129 176 rcurveline
            21 23 30 30 25 24 58 6 rcurveline
            hintmask 10011000
            220 callgsubr
            -55 -5 -111 vhcurveto
            hintmask 10101000
            -48 -49 -79 callsubr
            hintmask 01011000
            31 -6 -28 -52 -162 -224 rlineto
            0 129 -165 21 -24 vhcurveto
            14 -19 27 -43 18 -29 -39 -8 rcurveline
            236 callsubr
            47 5 48 112 90 -5 0 vhcurveto
            -409 715 rmoveto
            hintmask 10101000
            0 -80 -5 -112 -48 -48 5 0 vhcurveto
            hintmask 01011000
            -5 -75 62 -12 rlineto
            2 -16 7 -45 -50 vvcurveto
            hintmask 10101000
            79 callsubr
            -8 -56 -1 -10 vhcurveto
            hintmask 01011000
            -63 -75 callsubr
            48 5 48 112 79 -31 callsubr
            -61 245 callsubr
            hintmask 10101000
            63 6 rlineto
            return
          </CharString>
          <CharString index="67">
            hintmask 10101010
            hintmask 10011010
            290 112 callgsubr
            -72 -4 -100 vhcurveto
            hintmask 10101010
            -47 30 callsubr
            hintmask 10011010
            45 -9 rlineto
            hintmask 10101010
            -68 callsubr
            hintmask 01101010
            100 69 12 callsubr
            hintmask 10101010
            33 callsubr
            hintmask 01101010
            256 vlineto
            hintmask 10101010
            49 callgsubr
            return
          </CharString>
          <CharString index="68">
            259 callsubr
            14 11 -7 -16 vhcurveto
            return
          </CharString>
          <CharString index="69">
            vvcurveto
            -66 callgsubr
            return
          </CharString>
          <CharString index="70">
            24 65 6 52 vvcurveto
            48 -47 26 -47 vhcurveto
            return
          </CharString>
          <CharString index="71">
            -163 vlineto
            -130 80 -86 155 154 82 86 130 vhcurveto
            211 vlineto
            6 5 38 2 12 vhcurveto
            97 5 23 47 72 vvcurveto
            17 -7 18 -11 19 vhcurveto
            return
          </CharString>
          <CharString index="72">
            -39 0 -11 callgsubr
            return
          </CharString>
          <CharString index="73">
            63 vlineto
            -54 4 -7 -48 rlineto
            0 -12 -7 -15 vhcurveto
            return
          </CharString>
          <CharString index="74">
            2 callgsubr
            hintmask 10101100
            179 callsubr
            -70 callsubr
            81 80 callgsubr
            76 rlineto
            hintmask 10101100
            -57 callsubr
            hintmask 01101100
            349 vlineto
            hintmask 10101100
            2 callsubr
            return
          </CharString>
          <CharString index="75">
            -105 0 hvcurveto
            47 -28 rlineto
            0 25 42 return
          </CharString>
          <CharString index="76">
            80 callgsubr
            76 return
          </CharString>
          <CharString index="77">
            480 569 rmoveto
            0 23 -47 -30 vvcurveto
            -22 -18 -17 -44 -4 vhcurveto
            35 -41 -57 19 -71 hhcurveto
            88 callgsubr
            hvcurveto
            return
          </CharString>
          <CharString index="78">
            -5 -113 vhcurveto
            return
          </CharString>
          <CharString index="79">
            -189 -544 -42 -86 -45 -7 rlineto
            return
          </CharString>
          <CharString index="80">
            122 -6 83 -56 -21 322 73 237 83 -10 -20 25 -20 hstemhm
            111 155 270 167 hintmask 10110011
            37 635 rmoveto
            65 -12 rlineto
            0 9 -61 -50 vvcurveto
            -117 -69 -73 69 -159 vlineto
            111 callsubr
            -66 -61 callgsubr
            hintmask 01110011
            -52 callgsubr
            vhcurveto
            60 87 -6 63 hhcurveto
            hintmask 10110011
            232 120 147 211 215 -120 148 -232 hvcurveto
            -49 -112 -10 -48 hhcurveto
            -47 -53 5 0 hvcurveto
            hintmask 10101011
            224 -388 rmoveto
            93 hlineto
            hintmask 10100111
            5 73 rlineto
            -98 147 hlineto
            16 3 49 1 17 vhcurveto
            4 23 24 4 20 hhcurveto
            hintmask 10110011
            147 52 -126 -152 -155 -51 -122 -150 -27 -27 2 1 -11 hvcurveto
            -1 12 -3 57 44 vvcurveto
            endchar
          </CharString>
          <CharString index="81">
            28 477 rmoveto
            -5 -170 76 -3 4 57 rlineto
            7 9 26 4 9 vhcurveto
            3 22 37 8 6 hhcurveto
            79 hlineto
            -12 -26 -14 -26 -7 -10 -122 -184 rcurveline
            -14 -22 -70 -76 0 vvcurveto
            14 -70 rlineto
            291 hlineto
            20 74 -3 0 hvcurveto
            return
          </CharString>
          <CharString index="82">
            -9 -40 -29 -19 -28 -13 9 -29 rcurveline
            94 8 51 79 70 vvcurveto
            52 -26 47 -54 -46 -33 -39 -45 -41 29 -30 42 vhcurveto
            return
          </CharString>
          <CharString index="83">
            60 callgsubr
            163 140 -125 191 return
          </CharString>
          <CharString index="84">
            -5 74 -69 61 177 68 165 72 -3 -20 hstemhm
            82 145 172 156 hintmask 10110110
            30 474 rmoveto
            45 -9 rlineto
            -1 5 8 -52 -52 vvcurveto
            -60 -46 -68 46 vlineto
            hintmask 01110110
            -103 vlineto
            -17 -8 -58 1 5 vhcurveto
            -46 -7 rlineto
            hintmask 10110110
            4 -62 rlineto
            hintmask 01110110
            0 23 4 47 vhcurveto
            46 74 -5 58 hhcurveto
            hintmask 10110110
            185 89 113 160 160 -92 115 -182 -31 -108 -8 1 -31 hvcurveto
            -41 -1 -36 5 0 vvcurveto
            hintmask 10101110
            193 -302 rmoveto
            53 hlineto
            4 68 rlineto
            -57 108 hlineto
            hintmask 10110110
            2 1 35 1 12 vhcurveto
            4 17 13 4 5 hhcurveto
            105 30 -92 -109 -114 -28 -87 -109 hvcurveto
            -14 -17 1 -2 hhcurveto
            -1 13 -1 43 32 vvcurveto
            endchar
          </CharString>
          <CharString index="85">
            -19 18 rlineto
            0 -94 -10 -20 vhcurveto
            -268 hlineto
            return
          </CharString>
          <CharString index="86">
            -50 110 hlineto
            2 2 34 13 vvcurveto
            77 hlineto
            return
          </CharString>
          <CharString index="87">
            -39 -10 103 -98 79 -74 74 338 91 return
          </CharString>
          <CharString index="88">
            24 14 -12 -6 9 hvcurveto
            6 -11 3 -5 -1 vvcurveto
            -69 vlineto
            73 -3 11 164 rlineto
            18 -56 -64 11 -56 hhcurveto
            -110 -79 -62 -95 hvcurveto
            return
          </CharString>
          <CharString index="89">
            -17 -6 -46 -1 112 callsubr
            return
          </CharString>
          <CharString index="90">
            100 callgsubr
            272 -20 hstemhm
            2 826 hintmask 01100110
            hintmask 01010110
            119 callgsubr
            hintmask 01100110
            -70 -72 5 0 hvcurveto
            -5 -71 rlineto
            hintmask 01010110
            58 -4 rlineto
            hintmask 10100110
            -6 -26 -8 -31 -4 -12 -65 -207 rcurveline
            -93 346 rlineto
            -88 hlineto
            -106 -346 -56 205 -3 12 -5 28 -6 31 rlinecurve
            66 305 callgsubr
            -83 -5 -40 vhcurveto
            hintmask 01010110
            204 callsubr
            hintmask 01100110
            55 175 callgsubr
            hintmask 01001110
            6 callgsubr
            return
          </CharString>
          <CharString index="91">
            177 -6 83 -56 -21 632 83 -10 173 callgsubr
            270 167 hintmask 10100110
            360 715 rmoveto
            -49 -112 -10 -48 hhcurveto
            hintmask 10010110
            -93 callsubr
            hintmask 10001110
            65 -12 rlineto
            0 9 -61 -50 vvcurveto
            -349 vlineto
            270 callgsubr
            vhcurveto
            60 87 -6 63 hhcurveto
            hintmask 01100110
            232 120 147 211 215 -120 148 -232 hvcurveto
            hintmask 10100110
            -14 -83 rmoveto
            147 52 -126 -152 -155 -51 -122 -150 -27 -27 2 1 -11 hvcurveto
            -1 12 -3 57 44 vvcurveto
            349 vlineto
            16 3 49 1 17 vhcurveto
            4 23 24 4 20 hhcurveto
            return
          </CharString>
          <CharString index="92">
            -25 9 -43 6 -137 15 rrcurveto
            -60 6 -23 10 22 vvcurveto
            6 4 9 10 12 vhcurveto
            -5 20 23 -3 25 hhcurveto
            return
          </CharString>
          <CharString index="93">
            3 0 87 -70 -21 630 95 callsubr
            210 62 hintmask 10101000
            hintmask 10011000
            345 29 callgsubr
            vhcurveto
            257 hlineto
            hintmask 10101100
            235 callsubr
            15 176 rlineto
            hintmask 01101100
            27 callsubr
            hintmask 10101100
            59 callsubr
            return
          </CharString>
          <CharString index="94">
            57 callgsubr
            9 134 62 0 vvcurveto
            -234 77 119 callsubr
            12 127 70 0 vvcurveto
            endchar
          </CharString>
          <CharString index="95">
            12 callgsubr
            vhcurveto
            return
          </CharString>
          <CharString index="96">
            4 0 hvcurveto
            -3 -66 rlineto
            return
          </CharString>
          <CharString index="97">
            132 hintmask 1100110010000000
            hintmask 1010110010000000
            749 198 callgsubr
            -58 -29 callsubr
            hintmask 1100110010000000
            -93 callsubr
            hintmask 1010110010000000
            65 -12 rlineto
            hintmask 1100110010000000
            -102 callsubr
            281 callgsubr
            vhcurveto
            hintmask 1010110010000000
            -93 callsubr
            hintmask 1100110010000000
            65 -12 rlineto
            3 -14 6 -47 -50 vvcurveto
            hintmask 1010110010000000
            -244 vlineto
            hintmask 1100110010000000
            -171 98 -112 191 190 100 112 171 vhcurveto
            274 vlineto
            20 6 47 3 14 186 callgsubr
            return
          </CharString>
          <CharString index="98">
            47 59 -5 0 hvcurveto
            5 70 rlineto
            return
          </CharString>
          <CharString index="99">
            rmoveto
            -111 -123 50 -40 40 44 rlineto
            6 6 70 61 0 vvcurveto
            endchar
          </CharString>
          <CharString index="100">
            vlineto
            50 6 89 4 43 vhcurveto
            31 callsubr
            return
          </CharString>
          <CharString index="101">
            rmoveto
            -111 123 -55 -52 rlineto
            0 70 -61 6 -6 vhcurveto
            40 -44 rlineto
            return
          </CharString>
          <CharString index="102">
            126 hintmask 1101110010000000
            hintmask 1011110010000000
            -7 callgsubr
            hintmask 1101110010000000
            -47 -28 -11 callsubr
            hintmask 1011110010000000
            44 -9 rlineto
            hintmask 1101110010000000
            -102 callgsubr
            0 -75 -4 -100 vhcurveto
            hintmask 1011110010000000
            -47 -24 -11 callsubr
            hintmask 1101110010000000
            44 -9 rlineto
            3 -11 4 -34 -52 vvcurveto
            hintmask 1011110010000000
            -163 vlineto
            hintmask 1101110010000000
            -130 80 -86 155 154 82 86 130 vhcurveto
            211 vlineto
            5 5 33 2 11 146 callgsubr
            return
          </CharString>
          <CharString index="103">
            11 -14 rlineto
            0 15 1 6 24 18 -6 -25 -25 -23 -8 -24 -20 -19 6 5 -16 vhcurveto
            return
          </CharString>
          <CharString index="104">
            -51 4 rlineto
            -2 -7 45 34 vvcurveto
            148 vlineto
            32 6 120 0 vhcurveto
            -76 8 rlineto
            0 -25 -31 -7 -6 vhcurveto
            -13 -11 -81 -59 0 vvcurveto
            26 -43 67 22 rlineto
            -200 vlineto
            -13 -7 -46 1 2 vhcurveto
            return
          </CharString>
          <CharString index="105">
            4 -62 rlineto
            0 22 4 47 vhcurveto
            return
          </CharString>
          <CharString index="106">
            25 callgsubr
            rlineto
            hintmask 01101110
            20 callgsubr
            hintmask 10101110
            108 callsubr
            hintmask 01101110
            return
          </CharString>
          <CharString index="107">
            140 -126 191 hintmask 1001011100100000
            308 429 rmoveto
            131 callsubr
            hintmask 0101011100100000
            -90 -48 -48 -50 -52 -21 40 52 vhcurveto
            107 vlineto
            50 10 132 0 vhcurveto
            -45 callgsubr
            hintmask 0100111100100000
            -89 callsubr
            hintmask 0011011100100000
            -45 callsubr
            hintmask 1001011100010000
            6 76 -60 6 rlineto
            hintmask 1001011100100000
            0 -9 66 50 vvcurveto
            102 vlineto
            -95 callsubr
            return
          </CharString>
          <CharString index="108">
            -100 61 -55 93 93 61 55 100 vhcurveto
            return
          </CharString>
          <CharString index="109">
            20 6 46 3 15 186 callgsubr
            return
          </CharString>
          <CharString index="110">
            -2 -13 -3 -15 -3 -11 -1 -5 -6 -14 -7 -17 rrcurveto
            -3 -13 -21 -2 -21 hhcurveto
            -63 hlineto
            -3 18 -4 28 33 vvcurveto
            return
          </CharString>
          <CharString index="111">
            78 callgsubr
            203 -20 hstemhm
            19 168 237 168 -44 103 hintmask 11111000
            hintmask 11110100
            -41 callgsubr
            hintmask 11111000
            167 120 109 175 64 -17 56 -29 44 hvcurveto
            hintmask 11110100
            22 callgsubr
            hintmask 11111000
            81 38 -45 -147 -147 -38 -45 -81 hvcurveto
            hintmask 11110100
            -80 -38 45 147 hvcurveto
            return
          </CharString>
          <CharString index="112">
            11 154 -69 6 rlineto
            -1 -6 -39 -1 -4 vhcurveto
            -6 -13 -29 -3 -7 vhcurveto
            -3 -23 -43 -8 -6 hhcurveto
            -81 hlineto
            12 26 13 26 7 10 120 185 rcurveline
            77 98 -7 69 rlineto
            return
          </CharString>
          <CharString index="113">
            vvcurveto
            -46 3 callgsubr
            23 4 47 vhcurveto
            hintmask 01101100
            100 69 12 callsubr
            hintmask 10101100
            -40 4 rlineto
            return
          </CharString>
          <CharString index="114">
            -48 -26 -33 -47 -47 26 -32 48 48 26 32 47 50 -28 30 -46 hvcurveto
            return
          </CharString>
          <CharString index="115">
            71 rmoveto
            108 callsubr
            102 vlineto
            return
          </CharString>
          <CharString index="116">
            35 49 -5 0 hvcurveto
            -343 503 rmoveto
            return
          </CharString>
          <CharString index="117">
            -52 0 108 -90 -21 449 97 hstemhm
            46 78 147 160 -40 75 hintmask 10111000
            224 543 rmoveto
            -61 -61 -9 -19 -58 hvcurveto
            4 -152 76 5 rlineto
            34 vlineto
            4 1 4 6 18 vhcurveto
            11 24 25 7 23 hhcurveto
            43 25 -17 -41 -75 -51 -77 -189 -144 hvcurveto
            12 -92 rlineto
            hintmask 10110100
            299 hlineto
            15 76 -3 0 hvcurveto
            hintmask 01110100
            30 17 rlineto
            hintmask 10110100
            7 179 -75 6 -7 -36 -14 -46 rlineto
            0 -56 -9 -24 vhcurveto
            -93 hlineto
            175 135 53 66 2 89 rrcurveto
            hintmask 10111000
            92 2 -73 53 -136 hhcurveto
            endchar
          </CharString>
          <CharString index="118">
            -49 -92 callgsubr
            return
          </CharString>
          <CharString index="119">
            149 callgsubr
            65 rlineto
            return
          </CharString>
          <CharString index="120">
            -41 24 -28 44 44 23 28 41 return
          </CharString>
          <CharString index="121">
            46 callsubr
            hintmask 10110110
            -93 callsubr
            hintmask 10101110
            65 -12 rlineto
            hintmask 01110110
            171 callsubr
            hintmask 10110101
            235 callsubr
            15 176 rlineto
            hintmask 01110101
            27 callsubr
            hintmask 10110101
            210 callgsubr
          </CharString>
          <CharString index="122">
            110 vlineto
            9 75 rlineto
            -119 113 hlineto
            -55 4 rlineto
            0 -42 -70 -13 -17 vhcurveto
            -5 -7 -64 -24 -28 -11 3 -63 rcurveline
            64 return
          </CharString>
          <CharString index="123">
            36 callgsubr
            hstemhm
            96 145 hintmask 10101000
            hintmask 10011000
            290 112 callgsubr
            -72 -4 -100 vhcurveto
            hintmask 10101000
            -47 30 callsubr
            hintmask 10011000
            45 -9 rlineto
            hintmask 10101000
            -68 callsubr
            hintmask 01101000
            100 69 12 callsubr
            hintmask 10101000
            33 callsubr
            hintmask 01101000
            256 vlineto
            hintmask 10101000
            298 callgsubr
          </CharString>
          <CharString index="124">
            197 callgsubr
            -58 -37 vvcurveto
            -282 vlineto
            -220 307 rlineto
            -15 22 -73 126 0 vvcurveto
            return
          </CharString>
          <CharString index="125">
            104 13 22 47 67 -17 callgsubr
            -564 -451 rmoveto
            187 57 88 120 vhcurveto
            return
          </CharString>
          <CharString index="126">
            -28 -33 11 11 -27 hvcurveto
            -1 -9 33 5 vvcurveto
            45 vlineto
            -71 5 -12 -165 rlineto
            0 104 -23 73 117 78 54 102 vhcurveto
            return
          </CharString>
          <CharString index="127">
            rmoveto
            -59 36 -36 41 -26 vhcurveto
            hintmask 11100100
            -44 -26 -48 -38 -54 vvcurveto
            -82 83 -35 85 87 81 34 82 62 -44 38 -49 27 vhcurveto
            hintmask 11101000
            38 25 40 37 50 vvcurveto
            70 -75 39 -78 vhcurveto
            hintmask 11010100
            -80 -73 -40 -68 hvcurveto
            hintmask 11100100
            91 -239 rmoveto
            36 23 28 25 19 vhcurveto
            41 -22 34 -22 -42 vvcurveto
            -37 -21 -19 -40 -40 -22 22 37 vhcurveto
            hintmask 11011000
            111 238 rmoveto
            -32 -16 -27 -18 -21 vhcurveto
            -36 20 -28 21 41 vvcurveto
            31 24 18 25 28 21 -18 -33 vhcurveto
            endchar
          </CharString>
          <CharString index="128">
            32 20 -1 -6 34 hvcurveto
            3 -7 6 -17 -3 vvcurveto
            3 -37 70 -2 11 132 rlineto
            return
          </CharString>
          <CharString index="129">
            220 503 rmoveto
            -112 -75 -47 -102 hvcurveto
            -191 241 28 -79 vvcurveto
            -28 -29 -15 -35 vhcurveto
            return
          </CharString>
          <CharString index="130">
            544 rmoveto
            0 -141 -29 callsubr
            hintmask 01010010
            -47 -113 -79 callsubr
            hintmask 01001010
            125 -12 rlineto
            hintmask 10000110
            2 -16 7 -45 -50 vvcurveto
            -183 vlineto
            -20 -8 -56 -1 -10 vhcurveto
            -126 -75 callsubr
            113 5 47 vhcurveto
            hintmask 00110010
            113 141 -5 0 hvcurveto
            5 76 rlineto
            hintmask 01010010
            -125 6 rlineto
            -2 14 -7 52 50 vvcurveto
            hintmask 00110010
            183 vlineto
            hintmask 01010010
            20 6 46 3 15 vhcurveto
            126 6 rlineto
            endchar
          </CharString>
          <CharString index="131">
            272 callsubr
            -19 7 -43 -49 vvcurveto
            -349 vlineto
            114 callgsubr
            return
          </CharString>
          <CharString index="132">
            227 callgsubr
            171 140 -126 191 return
          </CharString>
          <CharString index="133">
            140 vlineto
            223 -295 rlineto
            134 hlineto
            0 -1 58 42 vvcurveto
            315 vlineto
            7 4 35 1 6 vhcurveto
            46 hlineto
            return
          </CharString>
          <CharString index="134">
            -70 5 -2 -16 -6 -26 -4 -15 rlinecurve
            173 callsubr
            -19 -29 -4 -29 hhcurveto
            return
          </CharString>
          <CharString index="135">
            -4 -66 44 -9 rlineto
            2 -7 5 -40 -23 callgsubr
            -5 -45 -2 -8 vhcurveto
            -45 -7 return
          </CharString>
          <CharString index="136">
            163 87 -29 52 -63 -30 -9 -4 -36 -10 -26 -7 rlinecurve
            -26 7 -37 11 -8 3 -63 30 rcurveline
            -29 -52 rlineto
            257 -89 rmoveto
            188 callgsubr
            return
          </CharString>
          <CharString index="137">
            -23 -16 callgsubr
            return
          </CharString>
          <CharString index="138">
            110 callsubr
            10 0 hvcurveto
            return
          </CharString>
          <CharString index="139">
            rmoveto
            40 19 -36 -75 -81 -20 -38 -42 -40 -20 36 75 81 21 38 42 hvcurveto
            return
          </CharString>
          <CharString index="140">
            -40 4 rlineto
            -2 11 -6 40 42 vvcurveto
            return
          </CharString>
          <CharString index="141">
            -1 -7 26 28 vvcurveto
            14 65 75 vlineto
            -65 -4 rlineto
            88 vlineto
            -104 -35 rlineto
            -59 -88 vlineto
            131 170 rlineto
            10 15 70 65 0 vvcurveto
            endchar
          </CharString>
          <CharString index="142">
            262 rmoveto
            155 callsubr
            47 -58 -87 callgsubr
            return
          </CharString>
          <CharString index="143">
            64 -235 -136 -2 rlineto
            return
          </CharString>
          <CharString index="144">
            -10 -11 92 253 79 hstem
            30 159 173 160 vstem
            323 413 rmoveto
            -31 -33 -5 -5 -15 hvcurveto
            6 -72 rlineto
            0 20 3 14 60 18 -66 -60 -62 -19 -65 -62 -73 -19 92 73 165 80 196 227 74 vhcurveto
            -16 66 rlineto
            -302 -53 -148 -237 -211 vvcurveto
            -155 97 -102 155 132 108 87 132 125 -74 80 -125 vhcurveto
            endchar
          </CharString>
          <CharString index="145">
            rmoveto
            -42 -43 -6 -13 -37 hvcurveto
            9 -112 57 4 1 41 rlineto
            3 -1 -3 4 18 vhcurveto
            4 13 19 3 15 hhcurveto
            32 17 -16 -31 -53 -36 -36 -67 -12 hvcurveto
            9 -51 rlineto
            hintmask 11101000
            0 25 3 15 43 20 -22 -45 -64 -69 -47 -104 -10 vhcurveto
            15 -53 rlineto
            157 11 118 78 93 vvcurveto
            46 -40 46 -51 9 vhcurveto
            hintmask 01110000
            47 24 26 36 40 vvcurveto
            76 -53 39 -99 vhcurveto
            endchar
          </CharString>
          <CharString index="146">
            31 21 -8 -8 18 hvcurveto
            5 -10 9 -23 -5 vvcurveto
            -43 vlineto
            67 -5 12 158 rlineto
            return
          </CharString>
          <CharString index="147">
            129 86 73 110 41 -8 26 -18 27 hvcurveto
            -268 -446 rmoveto
            15 -4 17 -3 20 -3 rrcurveto
            return
          </CharString>
          <CharString index="148">
            rmoveto
            0 -22 -38 -24 vhcurveto
            return
          </CharString>
          <CharString index="149">
            -28 -71 rlineto
            0 95 -21 13 -6 vhcurveto
            64 -28 28 56 rlineto
            -195 -70 rmoveto
            188 callgsubr
            -38 22 -25 41 41 22 25 38 return
          </CharString>
          <CharString index="150">
            rmoveto
            -68 callgsubr
            -424 vlineto
            return
          </CharString>
          <CharString index="151">
            0 -81 -29 callsubr
            return
          </CharString>
          <CharString index="152">
            -157 0 74 callsubr
            return
          </CharString>
          <CharString index="153">
            rmoveto
            44 callsubr
            return
          </CharString>
          <CharString index="154">
            275 456 rmoveto
            -31 -66 -128 -202 rlineto
            -16 -29 -69 -89 0 vvcurveto
            9 -70 rlineto
            312 hlineto
            15 74 -3 0 hvcurveto
            return
          </CharString>
          <CharString index="155">
            -46 -1 -35 5 0 vvcurveto
            -4 -66 45 -9 rlineto
            2 -16 5 -33 -50 vvcurveto
            257 callgsubr
            -45 -7 rlineto
            return
          </CharString>
          <CharString index="156">
            -61 -15 60 callsubr
            return
          </CharString>
          <CharString index="157">
            -76 callgsubr
            102 vlineto
            return
          </CharString>
          <CharString index="158">
            hintmask 10101100
            12 691 43 callsubr
            hintmask 01101100
            -12 callsubr
            hintmask 10101100
            265 callgsubr
            hvcurveto
            5 76 rlineto
            hintmask 01101100
            -65 6 rlineto
            hintmask 10110100
            18 callgsubr
            return
          </CharString>
          <CharString index="159">
            -226 0 74 callgsubr
            return
          </CharString>
          <CharString index="160">
            hstemhm
            120 155 return
          </CharString>
          <CharString index="161">
            rmoveto
            -235 -121 39 -63 74 40 rlineto
            19 6 139 59 0 vvcurveto
            189 74 rmoveto
            -236 -117 36 -62 74 38 rlineto
            19 6 143 51 0 vvcurveto
            endchar
          </CharString>
          <CharString index="162">
            788 250 rmoveto
            204 -163 161 -203 -200 -165 -163 -202 -206 167 -159 198 202 164 167 198 vhcurveto
            -70 hmoveto
            -162 -132 -134 -164 -162 -134 134 162 166 134 130 162 163 133 -135 -161 vhcurveto
            return
          </CharString>
          <CharString index="163">
            -4 -60 21 -10 7 -19 -83 -162 -82 165 rlineto
            return
          </CharString>
          <CharString index="164">
            -151 -141 49 -39 return
          </CharString>
          <CharString index="165">
            hintmask 01010100
            hintmask 01001100
            287 112 callgsubr
            -72 -4 -100 vhcurveto
            hintmask 01010100
            -47 -24 -16 callgsubr
            hintmask 01001100
            45 -9 rlineto
            hintmask 10010100
            196 callsubr
            return
          </CharString>
          <CharString index="166">
            -94 hlineto
            -3 21 -5 43 42 vvcurveto
            349 vlineto
            2 callsubr
            return
          </CharString>
          <CharString index="167">
            96 140 77 126 79 return
          </CharString>
          <CharString index="168">
            rmoveto
            31 23 5 5 15 hvcurveto
            -6 72 rlineto
            0 -20 -3 -14 -48 -30 56 70 62 19 65 62 65 27 -80 -85 -165 -58 -205 -249 -66 vhcurveto
            22 -74 rlineto
            302 53 142 246 211 vvcurveto
            150 -89 107 -163 -133 -107 -97 -122 -130 79 -75 130 vhcurveto
            endchar
          </CharString>
          <CharString index="169">
            rmoveto
            0 18 -36 -23 vvcurveto
            -30 -8 -4 -128 -47 -28 4 0 vhcurveto
            return
          </CharString>
          <CharString index="170">
            rmoveto
            0 23 -47 -30 vvcurveto
            -37 -12 -8 -142 -47 -53 5 0 vhcurveto
            return
          </CharString>
          <CharString index="171">
            107 callgsubr
            49 48 50 return
          </CharString>
          <CharString index="172">
            20 54 5 44 vvcurveto
            37 -32 20 -39 vhcurveto
            return
          </CharString>
          <CharString index="173">
            107 371 69 4 -20 return
          </CharString>
          <CharString index="174">
            rmoveto
            22 15 3 3 9 hvcurveto
            -4 52 rlineto
            -1 -2 -11 -1 -7 hhcurveto
            -30 -18 36 46 39 11 43 40 41 17 -51 -55 -110 -39 -137 -170 -42 hvcurveto
            17 -53 rlineto
            209 34 100 167 141 vvcurveto
            100 -62 72 -114 -93 -75 -66 -82 -88 53 -50 91 vhcurveto
            endchar
          </CharString>
          <CharString index="175">
            rmoveto
            20 15 4 2 9 hvcurveto
            -4 50 rlineto
            -1 -2 -10 -1 -7 hhcurveto
            -28 -17 35 45 38 10 41 38 39 16 -49 -53 -106 -37 -134 -162 -40 hvcurveto
            16 -52 rlineto
            200 33 96 162 137 vvcurveto
            97 -60 69 -109 -89 -72 -64 -79 -85 51 -49 87 vhcurveto
            endchar
          </CharString>
          <CharString index="176">
            -8 27 31 -5 34 hhcurveto
            159 88 93 166 hvcurveto
            -335 hmoveto
            123 26 51 62 20 16 -6 -11 13 vhcurveto
            -130 -247 rlineto
            -5 24 -2 30 36 vvcurveto
            176 hmoveto
            -123 -26 -51 -62 -18 -16 4 10 -12 vhcurveto
            129 240 rlineto
            3 -22 2 -27 -31 vvcurveto
            return
          </CharString>
          <CharString index="177">
            429 rmoveto
            -68 callgsubr
            77 callsubr
            return
          </CharString>
          <CharString index="178">
            47 186 rmoveto
            -12 -163 rlineto
            0 81 -34 104 116 89 69 106 vhcurveto
            return
          </CharString>
          <CharString index="179">
            -47 30 callsubr
            hintmask 10011100
            45 -9 rlineto
            hintmask 10101100
            return
          </CharString>
          <CharString index="180">
            256 vlineto
            185 callgsubr
            return
          </CharString>
          <CharString index="181">
            74 -58 -21 631 79 5 -20 return
          </CharString>
          <CharString index="182">
            -28 -49 -6 -34 vvcurveto
            -4 vlineto
            return
          </CharString>
          <CharString index="183">
            rmoveto
            -20 -15 -3 -3 -9 hvcurveto
            4 -51 rlineto
            0 11 2 6 25 16 -31 -46 -40 -9 -42 -37 -38 -15 50 56 103 54 125 142 46 vhcurveto
            -11 47 rlineto
            -201 -34 -101 -152 -135 vvcurveto
            -101 60 -71 111 90 73 66 82 88 -51 44 -85 vhcurveto
            endchar
          </CharString>
          <CharString index="184">
            -304 vlineto
            -40 -75 83 callsubr
            305 vlineto
            return
          </CharString>
          <CharString index="185">
            -35 29 -15 12 -4 vhcurveto
            return
          </CharString>
          <CharString index="186">
            -349 vlineto
            -20 return
          </CharString>
          <CharString index="187">
            rmoveto
            -48 -47 -8 -16 -46 hvcurveto
            4 -119 58 4 rlineto
            28 vlineto
            5 1 6 4 13 vhcurveto
            10 20 20 6 19 hhcurveto
            35 24 -18 -37 return
          </CharString>
          <CharString index="188">
            123 234 rlineto
            10 16 38 44 0 vvcurveto
            return
          </CharString>
          <CharString index="189">
            33 -39 rlineto
            7 24 19 2 14 hhcurveto
            52 21 -28 -46 -60 -34 -33 -127 -29 hvcurveto
            16 -52 rlineto
            172 27 84 64 100 vvcurveto
            78 -51 50 -99 -10 -16 0 -1 -12 vhcurveto
            4 51 2 31 0 vvcurveto
            66 hlineto
            19 78 8 0 hvcurveto
            -4 90 rlineto
            endchar
          </CharString>
          <CharString index="190">
            -190 0 vhcurveto
            47 -26 rlineto
            0 168 185 40 vvcurveto
            return
          </CharString>
          <CharString index="191">
            33 -27 rlineto
            0 31 24 24 vhcurveto
            return
          </CharString>
          <CharString index="192">
            -38 23 -25 40 41 23 25 38 return
          </CharString>
          <CharString index="193">
            -57 callgsubr
            hintmask 11011010
            142 callgsubr
          </CharString>
          <CharString index="194">
            -17 -7 -46 -7 vvcurveto
            -45 -7 3 -62 rlineto
            0 23 4 47 100 69 -4 0 vhcurveto
            231 callgsubr
            return
          </CharString>
          <CharString index="195">
            14 134 callsubr
            477 62 -57 57 7 -20 return
          </CharString>
          <CharString index="196">
            74 -58 -21 633 77 -72 71 -64 65 5 -20 return
          </CharString>
          <CharString index="197">
            -62 40 57 -30 79 hhcurveto
            78 66 24 47 52 262 callsubr
            -33 -73 -85 -35 40 103 -6 vhcurveto
            270 16 21 39 rlineto
            141 -78 83 -131 -58 -49 -14 -28 -38 vhcurveto
            28 -36 -50 14 -62 hhcurveto
            -46 -70 -10 -17 -67 hvcurveto
            return
          </CharString>
          <CharString index="198">
            -33 -23 callgsubr
            return
          </CharString>
          <CharString index="199">
            185 88 113 160 160 -91 115 -182 hvcurveto
            -17 -72 rmoveto
            105 30 -92 -109 -114 -29 -87 -109 hvcurveto
            -13 -17 1 -3 hhcurveto
            13 -2 43 32 vvcurveto
            256 vlineto
            2 2 35 12 vvcurveto
            4 17 14 4 5 hhcurveto
            return
          </CharString>
          <CharString index="200">
            269 hlineto
            21 39 rlineto
            return
          </CharString>
          <CharString index="201">
            rmoveto
            -7 -145 55 -2 6 30 4 10 4 9 2 9 rlinecurve
            1 14 13 1 6 hhcurveto
            99 hlineto
            -5 -29 -24 -52 -4 -8 -150 -277 rcurveline
            93 -32 212 443 -10 49 rlineto
            -217 hlineto
            -15 -64 6 0 hvcurveto
            endchar
          </CharString>
          <CharString index="202">
            79 5 244 callsubr
            return
          </CharString>
          <CharString index="203">
            rlineto
            hintmask 1010111100000000
            -4 callsubr
            hintmask 0101111010000000
            208 callgsubr
            9 45 return
          </CharString>
          <CharString index="204">
            -36 -47 24 -36 hhcurveto
            -36 -41 -65 0 hvcurveto
            return
          </CharString>
          <CharString index="205">
            hintmask 0101100110000000
            hintmask 0011100110000000
            321 hmoveto
            hintmask 0011100101000000
            -45 callsubr
            hintmask 0101100101000000
            6 76 -60 6 rlineto
            return
          </CharString>
          <CharString index="206">
            246 0 182 -161 -21 473 63 -63 67 -31 -20 return
          </CharString>
          <CharString index="207">
            78 callsubr
            125 callgsubr
            return
          </CharString>
          <CharString index="208">
            hstemhm
            27 133 -114 152 -122 99 return
          </CharString>
          <CharString index="209">
            74 403 17 9 -20 return
          </CharString>
          <CharString index="210">
            rmoveto
            -120 51 -105 131 131 51 105 120 121 -51 105 -131 -131 -51 -105 -121 vhcurveto
            243 hmoveto
            -76 -10 -89 -51 -51 -10 89 76 77 10 88 51 51 10 -88 -77 vhcurveto
            endchar
          </CharString>
          <CharString index="211">
            159 88 93 166 59 -11 50 -22 40 hvcurveto
            return
          </CharString>
          <CharString index="212">
            189 -250 -24 74 vvcurveto
            20 18 18 47 vhcurveto
            return
          </CharString>
          <CharString index="213">
            49 -11 rlineto
            0 7 -45 -13 vvcurveto
            return
          </CharString>
          <CharString index="214">
            134 callgsubr
            80 57 5 64 return
          </CharString>
          <CharString index="215">
            -65 53 callgsubr
            return
          </CharString>
          <CharString index="216">
            rmoveto
            -74 callsubr
            -54 110 rmoveto
            -157 -98 37 -51 58 39 rlineto
            12 8 90 37 0 vvcurveto
            endchar
          </CharString>
          <CharString index="217">
            171 callgsubr
            -42 -75 return
          </CharString>
          <CharString index="218">
            -20 -9 -66 0 vhcurveto
            return
          </CharString>
          <CharString index="219">
            -7 vhcurveto
            -45 -7 return
          </CharString>
          <CharString index="220">
            594 268 rmoveto
            110 -48 84 -76 47 vhcurveto
            55 103 -52 25 -55 -103 rlineto
            12 -34 -37 6 -39 hhcurveto
            -167 -120 -109 -175 -112 48 -84 79 -47 hvcurveto
            -56 -105 50 -25 rlineto
            return
          </CharString>
          <CharString index="221">
            -66 callgsubr
            35 return
          </CharString>
          <CharString index="222">
            137 -15 93 183 102 264 93 return
          </CharString>
          <CharString index="223">
            0 -32 -4 -83 -43 -50 6 0 vhcurveto
            return
          </CharString>
          <CharString index="224">
            513 244 rmoveto
            100 -32 73 -60 43 vhcurveto
            58 109 -59 29 -58 -109 rlineto
            9 -29 -32 5 -35 hhcurveto
            -159 -88 -92 -167 -103 33 -75 64 -42 hvcurveto
            -50 -94 57 -29 rlineto
            return
          </CharString>
          <CharString index="225">
            327 100 rmoveto
            0 -28 -20 -26 -33 -19 30 33 vhcurveto
            return
          </CharString>
          <CharString index="226">
            rmoveto
            57 callgsubr
            return
          </CharString>
          <CharString index="227">
            -425 -724 71 -45 424 724 rlineto
            return
          </CharString>
          <CharString index="228">
            vlineto
            -17 -6 -46 -1 -7 vhcurveto
            return
          </CharString>
          <CharString index="229">
            116 141 rmoveto
            135 callsubr
            return
          </CharString>
          <CharString index="230">
            270 callgsubr
            vhcurveto
            hintmask 10101110
            265 callgsubr
            hvcurveto
            5 76 rlineto
            hintmask 01101110
            -65 6 rlineto
            hintmask 10101110
            107 callgsubr
            return
          </CharString>
          <CharString index="231">
            65 17 68 -44 62 return
          </CharString>
          <CharString index="232">
            741 352 rmoveto
            return
          </CharString>
          <CharString index="233">
            -160 -91 -96 -168 -159 68 -90 122 65 46 25 60 42 hvcurveto
            8 -75 rlineto
            return
          </CharString>
          <CharString index="234">
            -1 135 hlineto
            0 2 30 2 24 vhcurveto
            64 22 -29 -60 hvcurveto
            return
          </CharString>
          <CharString index="235">
            -1 callgsubr
            0 53 return
          </CharString>
          <CharString index="236">
            4 rlineto
            0 -6 44 33 vvcurveto
            return
          </CharString>
          <CharString index="237">
            -46 27 -31 50 return
          </CharString>
          <CharString index="238">
            -68 callgsubr
            -91 vlineto
            return
          </CharString>
          <CharString index="239">
            -65 -54 5 0 hvcurveto
            -6 -71 rlineto
            return
          </CharString>
          <CharString index="240">
            -65 -74 9 0 hvcurveto
            -6 -69 rlineto
            return
          </CharString>
          <CharString index="241">
            0 63 -46 -21 return
          </CharString>
          <CharString index="242">
            81 callgsubr
            198 hmoveto
            81 callgsubr
            return
          </CharString>
          <CharString index="243">
            -3 0 vhcurveto
            hintmask 1000001111100000
            3 51 rlineto
            hintmask 0101000011100000
            -41 129 callsubr
            return
          </CharString>
          <CharString index="244">
            473 rmoveto
            57 callsubr
            -64 callsubr
            return
          </CharString>
          <CharString index="245">
            576 rmoveto
            57 callsubr
            -64 callsubr
            return
          </CharString>
          <CharString index="246">
            717 rmoveto
            57 callsubr
            -64 callsubr
            return
          </CharString>
          <CharString index="247">
            -36 -64 5 0 hvcurveto
            return
          </CharString>
          <CharString index="248">
            -34 -37 4 0 hvcurveto
            return
          </CharString>
          <CharString index="249">
            -42 3 rlineto
            -1 -6 26 27 vvcurveto
            13 62 73 vlineto
            -62 -3 rlineto
            85 vlineto
            -101 -34 rlineto
            -57 -84 vlineto
            126 164 rlineto
            10 15 66 62 0 vvcurveto
            endchar
          </CharString>
          <CharString index="250">
            vlineto
            33 7 89 0 vhcurveto
            -14 13 -62 -2 rlineto
            return
          </CharString>
          <CharString index="251">
            -1 9 7 7 0 vvcurveto
            45 2 -5 66 rlineto
            return
          </CharString>
          <CharString index="252">
            -7 136 -14 13 rlineto
            0 -73 -7 -15 vhcurveto
            return
          </CharString>
          <CharString index="253">
            252 -262 rmoveto
            -32 vlineto
            -58 -25 -31 -47 -37 -17 18 41 36 13 14 39 5 vhcurveto
            287 217 rmoveto
            43 20 -36 -77 hvcurveto
            -1 -8 rlineto
            return
          </CharString>
          <CharString index="254">
            rmoveto
            hintmask 1000111110000000
            -52 -58 -97 callsubr
            endchar
          </CharString>
          <CharString index="255">
            5 -33 -52 vvcurveto
            return
          </CharString>
          <CharString index="256">
            -84 callgsubr
            14 return
          </CharString>
          <CharString index="257">
            hstemhm
            38 154 -151 78 155 151 -106 78 return
          </CharString>
          <CharString index="258">
            20 7 49 2 12 186 callgsubr
            return
          </CharString>
          <CharString index="259">
            38 -42 hhcurveto
            -43 -46 -105 0 hvcurveto
            return
          </CharString>
          <CharString index="260">
            191 callsubr
            18 return
          </CharString>
          <CharString index="261">
            140 -125 191 hintmask 0101110010100000
            hintmask 0011110010100000
            321 hmoveto
            hintmask 0011110010010000
            -45 callsubr
            hintmask 0101110010010000
            6 76 -60 6 rlineto
            return
          </CharString>
          <CharString index="262">
            -198 -143 return
          </CharString>
          <CharString index="263">
            hlineto
            20 44 -6 0 hvcurveto
            9 -60 64 6 rlineto
            0 -3 77 50 vvcurveto
            20 1 60 0 vhcurveto
            -62 5 -9 -64 rlineto
            0 -24 -9 -20 vhcurveto
            return
          </CharString>
          <CharString index="264">
            293 callgsubr
            -51 callsubr
            return
          </CharString>
          <CharString index="265">
            80 8 39 50 15 13 -4 -4 9 vhcurveto
            return
          </CharString>
          <CharString index="266">
            82 10 -20 hstemhm
            13 68 155 155 return
          </CharString>
          <CharString index="267">
            0 -62 -4 -122 -30 -34 6 0 vhcurveto
            return
          </CharString>
          <CharString index="268">
            25 159 134 157 return
          </CharString>
          <CharString index="269">
            450 52 -7 7 -4 -20 return
          </CharString>
          <CharString index="270">
            0 -32 -24 -24 vhcurveto
            return
          </CharString>
          <CharString index="271">
            217 callgsubr
            -17 17 7 -20 95 159 -46 81 -14 -20 hstemhm
            100 140 99 81 31 158 -140 140 return
          </CharString>
          <CharString index="272">
            173 hlineto
            2 -12 rlineto
            1 -6 -1 -28 -2 vvcurveto
            -45 3 callgsubr
            12 4 35 vhcurveto
            230 hlineto
            15 73 -3 0 hvcurveto
            return
          </CharString>
          <CharString index="273">
            rmoveto
            -88 hlineto
            -19 -18 -25 -314 47 -54 rlineto
            11 return
          </CharString>
          <CharString index="274">
            47 -58 67 49 return
          </CharString>
          <CharString index="275">
            26 callgsubr
            endchar
          </CharString>
          <CharString index="276">
            rmoveto
            153 -232 67 45 -105 187 105 187 -67 45 rlineto
            return
          </CharString>
          <CharString index="277">
            -42 -75 9 0 hvcurveto
            return
          </CharString>
          <CharString index="278">
            2 -16 7 -45 -50 -92 callgsubr
            vhcurveto
            257 hlineto
            return
          </CharString>
          <CharString index="279">
            vlineto
            298 callgsubr
          </CharString>
          <CharString index="280">
            -1 -6 -9 -18 -9 -19 rrcurveto
            -4 return
          </CharString>
          <CharString index="281">
            hstemhm
            280 155 215 57 return
          </CharString>
          <CharString index="282">
            134 callsubr
            470 74 -19 return
          </CharString>
          <CharString index="283">
            150 0 60 -60 63 -63 79 -62 -21 22 -21 116 75 50 71 7 46 95 79 -62 62 4 -20 23 -20 return
          </CharString>
          <CharString index="284">
            292 rmoveto
            155 callsubr
            47 -58 -87 callgsubr
            endchar
          </CharString>
          <CharString index="285">
            38 -22 26 -41 vhcurveto
            189 hmoveto
            106 callgsubr
            38 -23 26 -41 hvcurveto
            endchar
          </CharString>
          <CharString index="286">
            -93 callsubr
            hintmask 10011100
            65 -12 rlineto
            hintmask 01101100
            return
          </CharString>
          <CharString index="287">
            152 callsubr
            47 -28 rlineto
            return
          </CharString>
          <CharString index="288">
            rmoveto
            106 callsubr
            return
          </CharString>
          <CharString index="289">
            0 26 4 47 101 45 -4 0 vhcurveto
            return
          </CharString>
          <CharString index="290">
            -127 1 -19 vhcurveto
            -1 -93 return
          </CharString>
          <CharString index="291">
            -50 218 callsubr
            return
          </CharString>
          <CharString index="292">
            0 -6 14 12 return
          </CharString>
          <CharString index="293">
            -47 28 -32 51 return
          </CharString>
          <CharString index="294">
            167 callsubr
            84 41 84 -41 67 -49 47 58 rlineto
            endchar
          </CharString>
          <CharString index="295">
            rmoveto
            -50 -38 -29 -50 -50 -38 29 50 vhcurveto
            -66 hlineto
            hintmask 10101111
            113 callgsubr
          </CharString>
          <CharString index="296">
            88 -232 rmoveto
            34 22 27 24 19 vhcurveto
            39 -21 32 -21 -41 vvcurveto
            -36 -20 -18 -38 -38 -21 21 36 vhcurveto
            return
          </CharString>
          <CharString index="297">
            -39 135 callgsubr
            55 103 -98 79 -74 74 338 91 return
          </CharString>
          <CharString index="298">
            167 callsubr
            rlineto
            return
          </CharString>
          <CharString index="299">
            28 30 -6 0 return
          </CharString>
          <CharString index="300">
            221 hlineto
            12 61 -2 0 hvcurveto
            91 callgsubr
            return
          </CharString>
          <CharString index="301">
            7 21 27 5 25 hhcurveto
            51 28 -28 -53 -82 -56 -54 -106 -18 hvcurveto
            14 -73 rlineto
            0 36 4 26 vhcurveto
            return
          </CharString>
          <CharString index="302">
            -102 0 80 -62 -21 417 80 -69 69 return
          </CharString>
          <CharString index="303">
            2 -14 148 callsubr
            return
          </CharString>
          <CharString index="304">
            0 -62 -4 -123 vhcurveto
            return
          </CharString>
          <CharString index="305">
            -36 callgsubr
            hintmask 10111110
            -35 callgsubr
            return
          </CharString>
          <CharString index="306">
            -53 callsubr
            -25 -41 -2 -31 vvcurveto
            return
          </CharString>
          <CharString index="307">
            292 452 rmoveto
            -237 104 33 callgsubr
            endchar
          </CharString>
          <CharString index="308">
            -42 -81 180 callsubr
            return
          </CharString>
          <CharString index="309">
            205 callgsubr
            354 180 vstem
            return
          </CharString>
          <CharString index="310">
            -10 113 -108 79 -74 74 334 95 -5 -20 return
          </CharString>
          <CharString index="311">
            -70 -69 9 0 hvcurveto
            -5 -69 rlineto
            return
          </CharString>
          <CharString index="312">
            -84 299 callgsubr
            return
          </CharString>
          <CharString index="313">
            -5 66 rlineto
            0 -31 -4 -84 vhcurveto
            return
          </CharString>
          <CharString index="314">
            549 97 hstem
            27 180 return
          </CharString>
          <CharString index="315">
            135 callgsubr
            50 114 527 79 5 -20 hstemhm
            100 160 63 154 70 132 return
          </CharString>
          <CharString index="316">
            -45 -36 19 40 -5 hvcurveto
            -68 hlineto
            -79 5 66 -49 83 hhcurveto
            83 66 49 79 5 hvcurveto
            endchar
          </CharString>
          <CharString index="317">
            206 -19 202 callsubr
            125 callsubr
            return
          </CharString>
          <CharString index="318">
            -218 -339 -7 -11 -20 -28 -19 -25 rlinecurve
            -36 -4 4 -62 rlineto
            0 33 4 47 vhcurveto
            return
          </CharString>
          <CharString index="319">
            -85 callsubr
            endchar
          </CharString>
          <CharString index="320">
            41 callsubr
            hintmask 11011100
            -42 return
          </CharString>
          <CharString index="321">
            73 7 259 callgsubr
            return
          </CharString>
          <CharString index="322">
            13 -54 -55 13 -71 hhcurveto
            return
          </CharString>
          <CharString index="323">
            14 6 18 12 16 vhcurveto
            return
          </CharString>
          <CharString index="324">
            16 -69 -69 18 -91 hhcurveto
            return
          </CharString>
          <CharString index="325">
            vvcurveto
            79 callsubr
            return
          </CharString>
          <CharString index="326">
            101 68 -4 0 return
          </CharString>
          <CharString index="327">
            hstemhm
            92 122 235 121 hintmask 10101100
            617 112 callgsubr
            -69 -4 -63 vhcurveto
            return
          </CharString>
          <CharString index="328">
            -48 callgsubr
            hstemhm
            120 155 return
          </CharString>
          <CharString index="329">
            -18 135 callgsubr
            50 85 348 85 261 callsubr
            10 159 return
          </CharString>
          <CharString index="330">
            765 rmoveto
            57 callsubr
            -64 callsubr
            return
          </CharString>
          <CharString index="331">
            50 33 184 0 vhcurveto
            -22 18 -118 -10 -6 -6 rlineto
            0 33 -216 -20 vvcurveto
            return
          </CharString>
          <CharString index="332">
            186 rmoveto
            -213 -93 33 -58 67 34 rlineto
            17 6 128 36 0 vvcurveto
            endchar
          </CharString>
          <CharString index="333">
            37 69 -38 37 hhcurveto
            37 39 101 0 hvcurveto
            endchar
          </CharString>
          <CharString index="334">
            3 -48 rlineto
            0 return
          </CharString>
          <CharString index="335">
            5 47 vhcurveto
            hintmask 10101011
            265 callgsubr
            hvcurveto
            5 76 rlineto
            hintmask 01101011
            -65 6 rlineto
            return
          </CharString>
          <CharString index="336">
            113 -10 rmoveto
            -5 -45 -29 -31 -52 -18 12 -32 rcurveline
            107 19 50 90 79 vvcurveto
            return
          </CharString>
          <CharString index="337">
            hlineto
            158 callsubr
            return
          </CharString>
          <CharString index="338">
            17 10 -20 hstemhm
            24 159 284 callsubr
            return
          </CharString>
          <CharString index="339">
            -203 238 rmoveto
            -86 -5 -30 -44 -53 hhcurveto
            return
          </CharString>
          <CharString index="340">
            -201 0 217 callgsubr
            7 -20 return
          </CharString>
          <CharString index="341">
            3 35 79 45 -3 0 vhcurveto
            return
          </CharString>
          <CharString index="342">
            20 94 -4 0 hvcurveto
            19 18 return
          </CharString>
          <CharString index="343">
            5 -70 rlineto
            0 return
          </CharString>
          <CharString index="344">
            58 348 58 hstemhm
            30 106 -91 104 98 104 -92 107 hintmask 11100100
            hintmask 11010100
            45 return
          </CharString>
          <CharString index="345">
            -5 -75 rlineto
            hintmask 10100110
            65 -12 rlineto
            return
          </CharString>
          <CharString index="346">
            53 callsubr
            130 65 return
          </CharString>
          <CharString index="347">
            80 62 -3 0 hvcurveto
            3 52 rlineto
            return
          </CharString>
          <CharString index="348">
            -13 -6 -46 1 vvcurveto
            -65 -8 rlineto
            return
          </CharString>
          <CharString index="349">
            135 callgsubr
            65 63 -46 -21 return
          </CharString>
          <CharString index="350">
            -110 -71 -80 -110 return
          </CharString>
          <CharString index="351">
            -20 53 callsubr
            return
          </CharString>
          <CharString index="352">
            6 rlineto
            -2 14 -7 52 50 vvcurveto
            349 vlineto
            20 6 46 3 15 vhcurveto
            return
          </CharString>
          <CharString index="353">
            17 9 -20 227 callgsubr
            1 154 16 140 -126 191 return
          </CharString>
          <CharString index="354">
            -3 0 vhcurveto
            hintmask 00111110
            3 51 rlineto
            hintmask 10011110
            return
          </CharString>
          <CharString index="355">
            239 callsubr
            17 68 return
          </CharString>
          <CharString index="356">
            50 10 132 0 vhcurveto
            31 callsubr
            return
          </CharString>
          <CharString index="357">
            -105 49 -92 125 125 49 92 105 105 -49 91 -125 vhcurveto
            return
          </CharString>
          <CharString index="358">
            -76 hlineto
            -2 -5 1 7 hhcurveto
            -16 102 -1 4 -1 29 -1 12 rlinecurve
            return
          </CharString>
          <CharString index="359">
            -40 -9 -50 0 vhcurveto
            -69 -9 3 -66 rlineto
            0 99 4 69 vhcurveto
            return
          </CharString>
          <CharString index="360">
            hstemhm
            19 148 -119 82 163 143 133 157 return
          </CharString>
          <CharString index="361">
            79 253 92 hstem
            30 160 173 159 vstem
            239 return
          </CharString>
          <CharString index="362">
            273 callsubr
            -42 103 return
          </CharString>
          <CharString index="363">
            137 118 39 46 66 vvcurveto
            74 -53 43 -102 vhcurveto
            endchar
          </CharString>
          <CharString index="364">
            -20 240 callgsubr
            return
          </CharString>
          <CharString index="365">
            hstemhm
            19 62 100 108 -99 117 return
          </CharString>
          <CharString index="366">
            16 -49 rlineto
            0 24 11 18 return
          </CharString>
          <CharString index="367">
            71 rlineto
            0 -72 -4 -100 vhcurveto
            return
          </CharString>
          <CharString index="368">
            219 callgsubr
            12 154 return
          </CharString>
          <CharString index="369">
            hvcurveto
            -35 58 rlineto
            0 -48 return
          </CharString>
          <CharString index="370">
            -107 -11 89 383 86 return
          </CharString>
          <CharString index="371">
            0 25 42 24 vhcurveto
            return
          </CharString>
          <CharString index="372">
            97 549 97 return
          </CharString>
          <CharString index="373">
            -229 69 -53 -21 224 95 -69 -21 395 113 return
          </CharString>
          <CharString index="374">
            -20 hstem
            63 455 vstem
            63 91 rmoveto
            -91 455 96 vlineto
            return
          </CharString>
          <CharString index="375">
            165 -15 96 -91 103 117 66 -44 66 126 79 return
          </CharString>
          <CharString index="376">
            319 8 callsubr
            return
          </CharString>
          <CharString index="377">
            54 159 64 hstem
            24 114 103 113 vstem
            162 return
          </CharString>
          <CharString index="378">
            rmoveto
            37 -164 rlineto
            -86 hlineto
            endchar
          </CharString>
          <CharString index="379">
            65 -12 rlineto
            2 return
          </CharString>
          <CharString index="380">
            -20 25 callsubr
            return
          </CharString>
          <CharString index="381">
            -60 -11 -70 -52 -52 -10 70 60 60 10 70 52 vhcurveto
            return
          </CharString>
          <CharString index="382">
            -66 hlineto
            113 callgsubr
          </CharString>
          <CharString index="383">
            130 callsubr
            50 27 31 46 return
          </CharString>
          <CharString index="384">
            -214 -21 712 17 9 -20 return
          </CharString>
          <CharString index="385">
            231 hlineto
            12 61 -2 0 hvcurveto
            return
          </CharString>
          <CharString index="386">
            -98 vlineto
            -4 -2 -28 -1 -25 vhcurveto
            return
          </CharString>
          <CharString index="387">
            79 -78 100 -96 74 return
          </CharString>
          <CharString index="388">
            61 -61 79 -61 -21 return
          </CharString>
          <CharString index="389" raw="1">
            5e848f4d 050b  
          </CharString>
          <CharString index="390">
            113 76 -5 0 return
          </CharString>
          <CharString index="391">
            173 140 return
          </CharString>
          <CharString index="392">
            -23 -145 rlineto
            hintmask 10010110
            80 -10 24 155 rlineto
            return
          </CharString>
          <CharString index="393">
            71 36 40 56 63 vvcurveto
            115 -78 60 -147 return
          </CharString>
          <CharString index="394">
            -59 callgsubr
            hvcurveto
            237 hmoveto
            return
          </CharString>
          <CharString index="395">
            20 8 193 rlineto
            hintmask 10110100
            -78 6 -7 -37 return
          </CharString>
          <CharString index="396">
            0 vhcurveto
            22 -18 118 10 6 6 rlineto
            0 -33 return
          </CharString>
          <CharString index="397">
            67 49 rlineto
            18 9 122 56 0 vvcurveto
            endchar
          </CharString>
          <CharString index="398">
            rmoveto
            163 callsubr
            return
          </CharString>
          <CharString index="399">
            -23 -29 -41 -41 23 -28 return
          </CharString>
          <CharString index="400">
            52 -34 -21 hstemhm
            133 107 hintmask 10100000
            301 return
          </CharString>
          <CharString index="401">
            155 hstem
            34 159 42 159 vstem
            105 return
          </CharString>
          <CharString index="402">
            36 24 38 36 48 vvcurveto
            69 -72 37 -75 vhcurveto
            return
          </CharString>
          <CharString index="403">
            74 84 94 hstem
            208 115 vstem
            132 return
          </CharString>
          <CharString index="404">
            -283 760 -20 hstem
            92 95 vstem
            187 return
          </CharString>
          <CharString index="405">
            161 vlineto
            85 5 30 45 53 hhcurveto
            endchar
          </CharString>
          <CharString index="406">
            60 123 119 -38 57 return
          </CharString>
          <CharString index="407">
            -76 callgsubr
            226 return
          </CharString>
          <CharString index="408">
            252 -20 hstem
            25 159 return
          </CharString>
          <CharString index="409">
            hstemhm
            120 127 return
          </CharString>
          <CharString index="410">
            3 65 -44 4 rlineto
            return
          </CharString>
          <CharString index="411">
            93 176 callgsubr
            return
          </CharString>
          <CharString index="412">
            -5 13 244 rlineto
            return
          </CharString>
          <CharString index="413">
            1 15 23 3 return
          </CharString>
          <CharString index="414">
            22 -40 -52 vhcurveto
            return
          </CharString>
          <CharString index="415">
            -22 163 hstem
            40 152 46 152 return
          </CharString>
          <CharString index="416">
            22 -5 74 -69 61 410 72 -3 -20 return
          </CharString>
          <CharString index="417">
            -110 -31 -46 -73 -19 -23 5 9 -27 return
          </CharString>
          <CharString index="418">
            69 hstemhm
            32 60 115 114 -35 57 return
          </CharString>
          <CharString index="419">
            -323 -83 -21 94 164 -143 -21 return
          </CharString>
          <CharString index="420">
            49 -29 29 -48 vhcurveto
            endchar
          </CharString>
          <CharString index="421">
            -6 127 rlineto
            endchar
          </CharString>
          <CharString index="422">
            43 22 28 41 return
          </CharString>
        <CharString name=".notdef">
          -383 endchar
        </CharString>
        <CharString name="A">
          -101 callsubr
          -343 503 rmoveto
          hintmask 01011100
          36 callsubr
          endchar
        </CharString>
        <CharString name="A.sc">
          -35 callsubr
          hstemhm
          1 521 -519 203 hintmask 10111000
          -70 callgsubr
          rlineto
          hintmask 10110100
          -28 callgsubr
          hintmask 01110100
          -9 callgsubr
          hintmask 10110100
          -98 callgsubr
          hintmask 01111000
          -36 callgsubr
          hintmask 10111000
          -35 callgsubr
          endchar
        </CharString>
        <CharString name="AE">
          -71 callgsubr
          endchar
        </CharString>
        <CharString name="AE.sc">
          176 callsubr
          hstemhm
          11 203 49 194 125 56 12 58 -48 54 hintmask 001001101000001000000000
          hintmask 001001100001001100000000
          706 530 rmoveto
          -15 13 rlineto
          0 -72 -7 -16 vhcurveto
          hintmask 001001101000011000000000
          -267 hlineto
          -47 -24 -16 callgsubr
          hintmask 001001100010011000000000
          48 -9 rlineto
          hintmask 100001100100111000000000
          211 callsubr
          hintmask 000101101000101000000000
          65 54 -4 0 hvcurveto
          4 65 rlineto
          hintmask 001001101000101000000000
          -48 4 rlineto
          15 7 6 13 1 hhcurveto
          hintmask 000101101000101000000000
          13 20 rlineto
          hintmask 010001101000101000000000
          165 callsubr
          hintmask 000011101000001000000000
          14 14 rlineto
          hintmask 001001101000001010000000
          12 144 -60 4 -1 -13 -4 -15 -3 -11 rlinecurve
          hintmask 000011101000001010000000
          -5 -7 -14 -7 -17 vhcurveto
          hintmask 001001101000001010000000
          143 callgsubr
          hintmask 001001101000001000000000
          15 1 46 0 vhcurveto
          -54 4 -7 -48 rlineto
          0 -12 -7 -15 vhcurveto
          hintmask 001001011000001000000000
          251 callsubr
          hintmask 001001101000011000000000
          194 callgsubr
          hintmask 001001101000001100000000
          275 callgsubr
          endchar
        </CharString>
        <CharString name="AEacute">
          -71 callgsubr
          208 630 -54 callsubr
        </CharString>
        <CharString name="AEacute.sc">
          176 callsubr
          232 -20 hstemhm
          11 203 49 194 125 56 12 58 -48 54 hintmask 001001101000100100000000
          hintmask 001001100001100110000000
          706 530 rmoveto
          -15 13 rlineto
          0 -72 -7 -16 vhcurveto
          hintmask 001001101000101100000000
          -267 hlineto
          -47 -24 -16 callgsubr
          hintmask 001001100010101100000000
          48 -9 rlineto
          hintmask 100001100100111100000000
          211 callsubr
          hintmask 000101101000110100000000
          65 54 -4 0 hvcurveto
          4 65 rlineto
          hintmask 001001101000110100000000
          -48 4 rlineto
          15 7 6 13 1 hhcurveto
          hintmask 000101101000110100000000
          13 20 rlineto
          hintmask 010001101000110100000000
          165 callsubr
          hintmask 000011101000100100000000
          14 14 rlineto
          hintmask 001001101000100101000000
          12 144 -60 4 -1 -13 -4 -15 -3 -11 rlinecurve
          hintmask 000011101000100101000000
          -5 -7 -14 -7 -17 vhcurveto
          hintmask 001001101000100101000000
          143 callgsubr
          hintmask 001001101000100100000000
          15 1 46 0 vhcurveto
          -54 4 -7 -48 rlineto
          0 -12 -7 -15 vhcurveto
          hintmask 001001011000100100000000
          251 callsubr
          hintmask 001001101000101100000000
          194 callgsubr
          hintmask 001001101000100110000000
          275 callgsubr
          170 566 -83 callgsubr
          endchar
        </CharString>
        <CharString name="Aacute">
          -101 callsubr
          -343 503 rmoveto
          hintmask 01011100
          36 callsubr
          hintmask 00111100
          206 637 -54 callsubr
        </CharString>
        <CharString name="Aacute.sc">
          -35 callsubr
          230 -20 -69 callgsubr
          168 565 -83 callgsubr
          endchar
        </CharString>
        <CharString name="Abreve">
          -53 callgsubr
          47 76 hstemhm
          180 272 callgsubr
          hintmask 01011011
          hintmask 10011011
          -72 callsubr
          hintmask 01011011
          -28 callsubr
          hintmask 00111011
          -8 callgsubr
          hintmask 01011011
          -9 callsubr
          hintmask 00111011
          -67 callgsubr
          hintmask 01011011
          -49 callgsubr
          hintmask 00111011
          9 callsubr
          hintmask 01011011
          36 callsubr
          hintmask 00111111
          174 637 rmoveto
          -50 callgsubr
          endchar
        </CharString>
        <CharString name="Abreve.sc">
          -35 callsubr
          49 76 285 callgsubr
          -87 272 callgsubr
          hintmask 10110011
          -70 callgsubr
          rlineto
          hintmask 10110101
          -28 callgsubr
          hintmask 01110101
          -9 callgsubr
          hintmask 10110101
          -98 callgsubr
          hintmask 01110011
          -36 callgsubr
          hintmask 10111011
          -35 callgsubr
          159 539 rmoveto
          -50 callgsubr
          endchar
        </CharString>
        <CharString name="Abreveacute">
          -53 callgsubr
          46 69 hstemhm
          1 667 hintmask 01011010
          hintmask 10011010
          -72 callsubr
          hintmask 01011010
          -28 callsubr
          hintmask 00111010
          -8 callgsubr
          hintmask 01011010
          -9 callsubr
          hintmask 00111010
          -67 callgsubr
          hintmask 01011010
          -49 callgsubr
          hintmask 00111010
          9 callsubr
          hintmask 01011010
          36 callsubr
          hintmask 00111110
          172 609 109 callsubr
        </CharString>
        <CharString name="Abreveacute.sc">
          -35 callsubr
          42 69 71 182 callgsubr
          hintmask 10110110
          -70 callgsubr
          rlineto
          hintmask 10110101
          -28 callgsubr
          hintmask 01110101
          -9 callgsubr
          hintmask 10110101
          -98 callgsubr
          hintmask 01110110
          198 callsubr
          154 505 109 callsubr
        </CharString>
        <CharString name="Abrevedotbelow">
          105 135 callgsubr
          65 69 -69 72 -56 -21 184 83 454 -20 47 76 hstemhm
          180 66 -7 154 29 66 hintmask 0010110101000000
          hintmask 0100110101000000
          -72 callsubr
          hintmask 0010110101000000
          -28 callsubr
          hintmask 0001110101000000
          -8 callgsubr
          hintmask 0010110101000000
          -9 callsubr
          hintmask 0001110101000000
          -67 callgsubr
          hintmask 0010110101000000
          -49 callgsubr
          hintmask 0001110101000000
          9 callsubr
          hintmask 0010110101000000
          36 callsubr
          hintmask 1001110011000000
          68 -326 -80 callgsubr
          106 963 rmoveto
          -50 -38 -29 -50 -50 -38 29 50 vhcurveto
          -66 hlineto
          hintmask 0010111101000000
          113 callgsubr
        </CharString>
        <CharString name="Abrevedotbelow.sc">
          -39 -220 155 65 -11 callgsubr
          89 76 -76 155 285 callgsubr
          -87 66 -14 154 36 66 hintmask 0101101010100000
          -70 callgsubr
          rlineto
          hintmask 0101101100100000
          -28 callgsubr
          hintmask 0011101100100000
          -9 callgsubr
          hintmask 0101101100100000
          -98 callgsubr
          hintmask 0011101010100000
          -36 callgsubr
          hintmask 1101101001100000
          -35 callgsubr
          46 -255 -80 callgsubr
          113 834 rmoveto
          -50 -38 -29 -50 -50 -38 29 50 vhcurveto
          hintmask 0101110010100000
          301 callgsubr
          hintmask 0101101010100000
          93 61 55 100 hvcurveto
          endchar
        </CharString>
        <CharString name="Abrevegrave">
          -53 callgsubr
          46 69 hstemhm
          1 667 hintmask 01011010
          hintmask 10011010
          -72 callsubr
          hintmask 01011010
          -28 callsubr
          hintmask 00111010
          -8 callgsubr
          hintmask 01011010
          -9 callsubr
          hintmask 00111010
          -67 callgsubr
          hintmask 01011010
          -49 callgsubr
          hintmask 00111010
          9 callsubr
          hintmask 01011010
          36 callsubr
          hintmask 00111110
          172 609 109 callgsubr
        </CharString>
        <CharString name="Abrevegrave.sc">
          -35 callsubr
          42 69 71 182 callgsubr
          hintmask 10110110
          -70 callgsubr
          rlineto
          hintmask 10110101
          -28 callgsubr
          hintmask 01110101
          -9 callgsubr
          hintmask 10110101
          -98 callgsubr
          hintmask 01110110
          198 callsubr
          154 505 109 callgsubr
        </CharString>
        <CharString name="Abrevehookabove">
          -53 callgsubr
          46 69 20 39 65 45 hstemhm
          301 59 -18 72 hintmask 0101100001000000
          hintmask 1001100001000000
          -72 callsubr
          hintmask 0101100001000000
          -28 callsubr
          hintmask 0011100001000000
          -8 callgsubr
          hintmask 0101100001000000
          -9 callsubr
          hintmask 0011100001000000
          -67 callgsubr
          hintmask 0101100001000000
          -49 callgsubr
          hintmask 0011100001000000
          9 callsubr
          hintmask 0101100001000000
          36 callsubr
          hintmask 0011100101000000
          95 719 rmoveto
          199 callsubr
          -4 vlineto
          -17 14 -11 20 8 16 1 4 6 vhcurveto
          hintmask 0101101010000000
          0 -5 10 8 20 54 5 44 vvcurveto
          254 callgsubr
          hintmask 0101101101000000
          -45 -36 19 40 -5 hvcurveto
          hintmask 0011100101000000
          -68 hlineto
          hintmask 0101101001000000
          -79 5 66 -49 83 hhcurveto
          hintmask 0101110001000000
          83 66 49 79 5 hvcurveto
          endchar
        </CharString>
        <CharString name="Abrevehookabove.sc">
          -35 callsubr
          42 69 20 39 65 45 285 callgsubr
          31 59 -18 72 hintmask 1011000101000000
          -70 callgsubr
          -28 callgsubr
          hintmask 0111000101000000
          -9 callgsubr
          hintmask 1011000101000000
          -98 callgsubr
          hintmask 0111000101000000
          -36 callgsubr
          hintmask 1011001101000000
          -35 callgsubr
          77 615 rmoveto
          199 callsubr
          -4 vlineto
          hintmask 1011010110000000
          8 callgsubr
          65 callsubr
          hintmask 1011011101000000
          77 -110 rmoveto
          hintmask 1011001101000000
          -40 -5 -36 -19 -45 hhcurveto
          hintmask 1011010101000000
          -45 -36 19 40 -5 hvcurveto
          hintmask 1011100101000000
          -68 hlineto
          -79 5 66 -49 83 hhcurveto
          83 66 49 79 5 hvcurveto
          endchar
        </CharString>
        <CharString name="Abrevetilde">
          -53 callgsubr
          46 69 76 69 -44 68 hstemhm
          1 667 hintmask 0101100010000000
          hintmask 1001100010000000
          -72 callsubr
          hintmask 0101100010000000
          -28 callsubr
          hintmask 0011100010000000
          -8 callgsubr
          hintmask 0101100010000000
          -9 callsubr
          hintmask 0011100010000000
          -67 callgsubr
          hintmask 0101100010000000
          -49 callgsubr
          hintmask 0011100010000000
          9 callsubr
          hintmask 0101100010000000
          36 callsubr
          hintmask 0011101010000000
          197 719 291 callsubr
          -36 -47 24 -36 hhcurveto
          23 callgsubr
          hintmask 0101100110000000
          66 callgsubr
          -56 205 callsubr
          hintmask 0101111010000000
          209 callsubr
        </CharString>
        <CharString name="Abrevetilde.sc">
          -35 callsubr
          42 69 76 69 -44 68 75 callgsubr
          hintmask 1011000100000000
          -70 callgsubr
          rlineto
          hintmask 1011000010000000
          -28 callgsubr
          hintmask 0111000010000000
          -9 callgsubr
          hintmask 1011000010000000
          -98 callgsubr
          hintmask 0111000100000000
          -36 callgsubr
          hintmask 1011010100000000
          -35 callgsubr
          179 615 291 callsubr
          97 callsubr
          hintmask 1011001100000000
          84 callsubr
          66 callgsubr
          hintmask 1011110100000000
          -56 -84 rmoveto
          -74 callsubr
          endchar
        </CharString>
        <CharString name="Acaron">
          -101 callsubr
          -178 944 rmoveto
          hintmask 01011100
          -67 -49 -84 -41 rlineto
          hintmask 00111100
          -24 callgsubr
          -212 -383 rmoveto
          36 callsubr
          endchar
        </CharString>
        <CharString name="Acaron.sc">
          -35 callsubr
          182 -20 78 182 callgsubr
          hintmask 10111110
          -70 callgsubr
          rlineto
          hintmask 10111101
          -28 callgsubr
          hintmask 01111101
          -9 callgsubr
          hintmask 10111101
          -98 callgsubr
          hintmask 01111110
          -36 callgsubr
          hintmask 10111110
          -391 771 -88 callgsubr
          57 -358 271 callsubr
        </CharString>
        <CharString name="Acircumflex">
          -101 callsubr
          -343 503 rmoveto
          hintmask 01011100
          36 callsubr
          hintmask 00111100
          86 647 -47 callgsubr
          endchar
        </CharString>
        <CharString name="Acircumflex.sc">
          -35 callsubr
          240 -20 -69 callgsubr
          71 575 rmoveto
          155 callsubr
          47 -58 -87 callgsubr
          endchar
        </CharString>
        <CharString name="Acircumflexacute">
          -101 callsubr
          -325 933 rmoveto
          hintmask 01011100
          57 callsubr
          rlineto
          hintmask 00111100
          -64 callsubr
          -169 -289 rmoveto
          36 callsubr
          285 747 -8 callsubr
        </CharString>
        <CharString name="Acircumflexacute.sc">
          -35 callsubr
          191 -20 63 182 callgsubr
          hintmask 10111110
          -70 callgsubr
          rlineto
          hintmask 10111101
          -28 callgsubr
          hintmask 01111101
          -9 callgsubr
          hintmask 10111101
          -98 callgsubr
          hintmask 01111110
          198 callsubr
          66 569 rmoveto
          57 callsubr
          -64 callsubr
          44 221 -8 callsubr
        </CharString>
        <CharString name="Acircumflexdotbelow">
          105 135 callgsubr
          65 69 -69 72 -56 -21 184 83 454 -20 hstemhm
          239 154 hintmask 00101110
          hintmask 01001110
          -72 callsubr
          hintmask 00101110
          -28 callsubr
          hintmask 00011110
          -8 callgsubr
          hintmask 00101110
          -9 callsubr
          hintmask 00011110
          -67 callgsubr
          hintmask 00101110
          -49 callgsubr
          hintmask 00011110
          9 callsubr
          hintmask 00101110
          36 callsubr
          hintmask 10011110
          86 647 -47 callgsubr
          -216 -840 -80 callgsubr
          endchar
        </CharString>
        <CharString name="Acircumflexdotbelow.sc">
          -39 -220 155 65 -11 callgsubr
          240 -20 285 callgsubr
          -35 154 hintmask 01011101
          -70 callgsubr
          rlineto
          hintmask 01011110
          -28 callgsubr
          hintmask 00111110
          -9 callgsubr
          hintmask 01011110
          -98 callgsubr
          hintmask 00111101
          -36 callgsubr
          hintmask 11011101
          -35 callgsubr
          71 575 rmoveto
          155 callsubr
          47 -58 -87 callgsubr
          -223 -687 -80 callgsubr
          endchar
        </CharString>
        <CharString name="Acircumflexgrave">
          -101 callsubr
          -327 933 rmoveto
          hintmask 01011100
          57 callsubr
          rlineto
          hintmask 00111100
          -64 callsubr
          -167 -289 rmoveto
          36 callsubr
          284 624 -6 callsubr
          endchar
        </CharString>
        <CharString name="Acircumflexgrave.sc">
          -35 callsubr
          191 -20 63 182 callgsubr
          hintmask 10111110
          -70 callgsubr
          rlineto
          hintmask 10111101
          -28 callgsubr
          hintmask 01111101
          -9 callgsubr
          hintmask 10111101
          -98 callgsubr
          hintmask 01111110
          -36 callgsubr
          hintmask 10111110
          -249 223 callsubr
          45 98 -6 callsubr
          -164 -322 271 callsubr
        </CharString>
        <CharString name="Acircumflexhookabove">
          -53 callgsubr
          240 45 hstemhm
          457 59 -18 72 -63 callsubr
          -327 933 rmoveto
          hintmask 01011001
          57 callsubr
          rlineto
          hintmask 00111101
          -64 callsubr
          -167 -289 rmoveto
          36 callsubr
          251 720 rmoveto
          199 callsubr
          -4 vlineto
          -17 14 -11 20 8 16 1 4 6 vhcurveto
          hintmask 01011010
          0 -5 10 8 65 callsubr
          endchar
        </CharString>
        <CharString name="Acircumflexhookabove.sc">
          -35 callsubr
          234 -20 28 45 285 callgsubr
          177 59 -18 72 hintmask 1011101010000000
          -70 callgsubr
          -28 callgsubr
          hintmask 0111101010000000
          -9 callgsubr
          hintmask 1011101010000000
          -98 callgsubr
          hintmask 0111101010000000
          -36 callgsubr
          hintmask 1011101010000000
          -256 223 callsubr
          12 194 rmoveto
          -53 callsubr
          hintmask 1011111010000000
          -12 callgsubr
          hintmask 1011101100000000
          65 callsubr
          -174 -458 271 callsubr
        </CharString>
        <CharString name="Acircumflextilde">
          -53 callgsubr
          193 69 -44 68 hstemhm
          1 667 -63 callsubr
          -343 503 rmoveto
          hintmask 01011001
          36 callsubr
          hintmask 00111101
          96 615 rmoveto
          -163 -87 136 callgsubr
          23 callgsubr
          hintmask 01011011
          66 callgsubr
          endchar
        </CharString>
        <CharString name="Acircumflextilde.sc">
          -35 callsubr
          182 -20 33 69 -44 68 75 callgsubr
          hintmask 1011100100000000
          -70 callgsubr
          rlineto
          hintmask 1011100010000000
          -28 callgsubr
          hintmask 0111100010000000
          -9 callgsubr
          hintmask 1011100010000000
          -98 callgsubr
          hintmask 0111100100000000
          -36 callgsubr
          hintmask 1011100100000000
          -35 callgsubr
          70 517 157 callsubr
          0 -32 -24 -24 vhcurveto
          hintmask 1011110100000000
          97 callsubr
          hintmask 1011101100000000
          84 callsubr
          66 callgsubr
          endchar
        </CharString>
        <CharString name="Adieresis">
          -53 callgsubr
          61 139 hstemhm
          148 141 callgsubr
          hintmask 01011011
          hintmask 10011011
          -72 callsubr
          hintmask 01011011
          -28 callsubr
          hintmask 00111011
          -8 callgsubr
          hintmask 01011011
          -9 callsubr
          hintmask 00111011
          -67 callgsubr
          hintmask 01011011
          -49 callgsubr
          hintmask 00111011
          9 callsubr
          hintmask 01011011
          36 callsubr
          hintmask 00111111
          -32 635 -82 callgsubr
        </CharString>
        <CharString name="Adieresis.sc">
          -35 callsubr
          61 139 285 callgsubr
          -119 141 callgsubr
          hintmask 10110011
          -70 callgsubr
          rlineto
          hintmask 10110101
          -28 callgsubr
          hintmask 01110101
          -9 callgsubr
          hintmask 10110101
          -98 callgsubr
          hintmask 01110011
          -36 callgsubr
          hintmask 10111011
          -35 callgsubr
          -47 535 -82 callgsubr
        </CharString>
        <CharString name="Adotbelow">
          105 135 callgsubr
          65 69 -69 72 -56 -21 184 83 454 -20 hstemhm
          243 154 hintmask 00101110
          hintmask 01001110
          -72 callsubr
          hintmask 00101110
          -28 callsubr
          hintmask 00011110
          -8 callgsubr
          hintmask 00101110
          -9 callsubr
          hintmask 00011110
          -67 callgsubr
          hintmask 00101110
          -49 callgsubr
          hintmask 00011110
          9 callsubr
          hintmask 00101110
          36 callsubr
          hintmask 10011110
          72 -326 -80 callgsubr
          endchar
        </CharString>
        <CharString name="Adotbelow.sc">
          -39 -220 155 65 -11 callgsubr
          285 callgsubr
          -35 154 hintmask 01011010
          -70 callgsubr
          rlineto
          hintmask 01011100
          -28 callgsubr
          hintmask 00111100
          -9 callgsubr
          hintmask 01011100
          -98 callgsubr
          hintmask 00111010
          -36 callgsubr
          hintmask 11011010
          -35 callgsubr
          46 -255 -80 callgsubr
          endchar
        </CharString>
        <CharString name="Agrave">
          -101 callsubr
          -343 503 rmoveto
          hintmask 01011100
          36 callsubr
          hintmask 00111100
          202 543 rmoveto
          -237 104 33 callgsubr
          endchar
        </CharString>
        <CharString name="Agrave.sc">
          -35 callsubr
          230 -20 -69 callgsubr
          182 433 -47 callsubr
          endchar
        </CharString>
        <CharString name="Ahookabove">
          -53 callgsubr
          187 56 hstemhm
          271 67 -18 83 -63 callsubr
          -343 503 rmoveto
          hintmask 01011001
          36 callsubr
          hintmask 00111101
          61 678 rmoveto
          -35 -25 -12 -6 -12 hvcurveto
          16 -49 rlineto
          225 callgsubr
          11 12 2 5 5 vhcurveto
          hintmask 01011010
          185 callsubr
          -37 callsubr
          endchar
        </CharString>
        <CharString name="Ahookabove.sc">
          -35 callsubr
          167 56 285 callgsubr
          3 67 -18 83 hintmask 10110101
          -70 callgsubr
          -28 callgsubr
          hintmask 01110101
          -9 callgsubr
          hintmask 10110101
          -98 callgsubr
          hintmask 01110101
          -36 callgsubr
          hintmask 10111101
          -35 callgsubr
          45 558 -57 callgsubr
          75 callsubr
          hintmask 10110010
          -32 callgsubr
          185 callsubr
          -37 callsubr
          endchar
        </CharString>
        <CharString name="Amacron">
          -53 callgsubr
          75 73 hstemhm
          1 667 hintmask 01011110
          hintmask 10011110
          -72 callsubr
          hintmask 01011110
          -28 callsubr
          hintmask 00111110
          -8 callgsubr
          hintmask 01011110
          -9 callsubr
          hintmask 00111110
          -67 callgsubr
          hintmask 01011110
          -49 callgsubr
          hintmask 00111110
          9 callsubr
          hintmask 01011110
          36 callsubr
          hintmask 00111110
          240 510 84 callgsubr
        </CharString>
        <CharString name="Amacron.sc">
          -35 callsubr
          71 73 -69 callgsubr
          226 406 84 callgsubr
        </CharString>
        <CharString name="Aogonek">
          105 -197 64 133 69 -53 -21 184 83 454 -20 hstemhm
          311 107 hintmask 01011100
          668 65 rmoveto
          -56 9 -23 54 -200 588 -112 -11 -28 callsubr
          hintmask 00111100
          -8 callgsubr
          hintmask 01011100
          -9 callsubr
          hintmask 10111100
          -58 12 6 38 17 64 rlineto
          189 hlineto
          14 -50 rlineto
          2 -12 1 -17 -9 -102 -116 -3 -94 vvcurveto
          48 callgsubr
          86 hlineto
          hintmask 01011100
          9 callsubr
          64 -235 rlineto
          hintmask 00111100
          -136 -2 rlineto
          endchar
        </CharString>
        <CharString name="Aogonek.sc">
          -39 -197 64 133 57 -57 62 -47 -21 23 47 callgsubr
          285 callgsubr
          -3 107 hintmask 0010011010000000
          hintmask 0100011010000000
          -70 callgsubr
          rlineto
          hintmask 0010011100000000
          -28 callgsubr
          hintmask 0000111100000000
          -9 callgsubr
          hintmask 0010011100000000
          43 47 -6 0 hvcurveto
          4 60 -40 10 3 18 7 32 rlineto
          133 hlineto
          7 -33 rlineto
          -7 -92 -108 -6 -91 vvcurveto
          hintmask 1010011010000000
          48 callgsubr
          75 hlineto
          192 callsubr
          hvcurveto
          -267 360 rmoveto
          hintmask 0001011010000000
          37 -164 rlineto
          -86 hlineto
          endchar
        </CharString>
        <CharString name="Aring">
          -53 callgsubr
          39 58 75 58 hstemhm
          234 69 63 67 hintmask 0101101110000000
          hintmask 1001101110000000
          -72 callsubr
          hintmask 0101101110000000
          -28 callsubr
          hintmask 0011101110000000
          -8 callgsubr
          hintmask 0101101110000000
          -9 callsubr
          hintmask 0011101110000000
          -67 callgsubr
          hintmask 0101101110000000
          -49 callgsubr
          hintmask 0011101110000000
          9 callsubr
          hintmask 0101101110000000
          36 callsubr
          hintmask 0011111110000000
          86 665 rmoveto
          90 callgsubr
          58 -33 38 -66 hvcurveto
          0 callgsubr
        </CharString>
        <CharString name="Aring.sc">
          -35 callsubr
          45 58 75 58 285 callgsubr
          -42 69 63 67 hintmask 1011010110000000
          -70 callgsubr
          rlineto
          hintmask 1011011010000000
          -28 callgsubr
          hintmask 0111011010000000
          -9 callgsubr
          hintmask 1011011010000000
          -98 callgsubr
          hintmask 0111010110000000
          -36 callgsubr
          hintmask 1011110110000000
          -35 callgsubr
          62 571 rmoveto
          90 callgsubr
          58 -33 38 -66 hvcurveto
          0 callgsubr
        </CharString>
        <CharString name="Aringacute">
          -53 callgsubr
          43 50 64 49 hstemhm
          242 59 53 57 hintmask 0101101110000000
          hintmask 1001101110000000
          -72 callsubr
          hintmask 0101101110000000
          -28 callsubr
          hintmask 0011101110000000
          -8 callgsubr
          hintmask 0101101110000000
          -9 callsubr
          hintmask 0011101110000000
          -67 callgsubr
          hintmask 0101101110000000
          -49 callgsubr
          hintmask 0011101110000000
          9 callsubr
          hintmask 0101101110000000
          36 callsubr
          hintmask 0011111110000000
          79 641 59 callgsubr
          79 225 callsubr
        </CharString>
        <CharString name="Aringacute.sc">
          -35 callsubr
          45 50 64 49 285 callgsubr
          -42 59 53 57 hintmask 1011010110000000
          -70 callgsubr
          rlineto
          hintmask 1011011010000000
          -28 callgsubr
          hintmask 0111011010000000
          -9 callgsubr
          hintmask 1011011010000000
          -98 callgsubr
          hintmask 0111010110000000
          -36 callgsubr
          hintmask 1011110110000000
          -35 callgsubr
          47 543 59 callgsubr
          82 225 callsubr
        </CharString>
        <CharString name="Atilde">
          -53 callgsubr
          58 266 callgsubr
          1 667 -63 callsubr
          -343 503 rmoveto
          hintmask 01011001
          36 callsubr
          hintmask 00111101
          229 622 162 callgsubr
          -101 -69 callsubr
          hintmask 01011011
          43 99 -44 callsubr
        </CharString>
        <CharString name="Atilde.sc">
          -35 callsubr
          69 91 -53 91 75 callgsubr
          hintmask 10110010
          -70 callgsubr
          rlineto
          hintmask 10110001
          -28 callgsubr
          hintmask 01110001
          -9 callgsubr
          hintmask 10110001
          -98 callgsubr
          hintmask 01110010
          -36 callgsubr
          hintmask 10111010
          -35 callgsubr
          182 533 162 callgsubr
          -81 152 callsubr
          hintmask 10110110
          47 -28 rlineto
          115 callgsubr
          43 45 101 0 hvcurveto
          endchar
        </CharString>
        <CharString name="B">
          71 -5 82 -56 -21 320 87 226 82 -10 173 callgsubr
          41 121 -5 145 -122 153 hintmask 1011001001000000
          hintmask 1011001010000000
          352 715 rmoveto
          -44 -116 -10 -43 hhcurveto
          hintmask 1010101001000000
          -47 -45 -79 callsubr
          hintmask 1010011001000000
          59 -12 rlineto
          5 -23 4 -48 -40 218 callsubr
          -6 -52 -3 -14 vhcurveto
          -60 -75 callsubr
          45 5 47 vhcurveto
          58 102 -5 61 hhcurveto
          129 110 61 133 hvcurveto
          hintmask 0111001001000000
          104 -72 56 -98 15 vhcurveto
          7 vlineto
          hintmask 1011001001000000
          81 20 58 64 88 vvcurveto
          110 -105 62 -120 vhcurveto
          -74 -86 rmoveto
          2 16 16 2 17 hhcurveto
          hintmask 1011001010000000
          62 43 -45 -57 -83 -41 -41 -65 hvcurveto
          -6 hlineto
          -7 -87 rlineto
          10 hlineto
          75 57 -28 -89 -79 -49 -47 -72 hvcurveto
          hintmask 1011001101000000
          -19 -19 1 2 -18 hvcurveto
          -1 14 -2 55 44 vvcurveto
          hintmask 1011001001000000
          349 vlineto
          19 2 60 1 8 vhcurveto
          endchar
        </CharString>
        <CharString name="B.sc">
          -53 -4 73 -69 61 175 79 154 74 -3 192 callgsubr
          24 102 -25 132 -114 138 hintmask 1011010100000000
          283 543 rmoveto
          -27 -114 -8 1 -26 hvcurveto
          hintmask 0110110100000000
          -44 -1 -23 5 0 vvcurveto
          -4 -66 40 -9 rlineto
          6 -22 1 -37 -40 -29 callgsubr
          -4 -42 -3 -11 vhcurveto
          -41 -7 rlineto
          hintmask 1011010100000000
          4 -62 rlineto
          0 23 4 43 vhcurveto
          hintmask 0111010100000000
          37 93 -4 52 hhcurveto
          106 92 42 108 hvcurveto
          hintmask 1011010010000000
          79 -56 41 -75 11 vhcurveto
          5 vlineto
          hintmask 1011011000000000
          63 16 44 48 67 vvcurveto
          83 -88 47 -99 vhcurveto
          hintmask 1011010100000000
          -45 -76 rmoveto
          1 9 7 1 8 hhcurveto
          45 31 -32 -33 -61 -32 -28 -38 hvcurveto
          -4 hlineto
          -6 -79 rlineto
          8 hlineto
          hintmask 1011011000000000
          47 43 -14 -63 -55 -36 -35 -52 hvcurveto
          hintmask 1011010010000000
          -9 -9 -1 2 -11 hvcurveto
          -1 11 -1 43 34 vvcurveto
          256 vlineto
          4 1 45 4 vvcurveto
          endchar
        </CharString>
        <CharString name="C">
          -80 callsubr
          endchar
        </CharString>
        <CharString name="C.sc">
          262 callgsubr
          214 callgsubr
          hintmask 11101000
          -27 callgsubr
          hintmask 11110000
          -25 callgsubr
          hintmask 11101000
          263 callgsubr
          endchar
        </CharString>
        <CharString name="Cacute">
          -80 callsubr
          -124 879 -54 callsubr
        </CharString>
        <CharString name="Cacute.sc">
          262 callgsubr
          208 -20 214 callgsubr
          hintmask 11110100
          -27 callgsubr
          hintmask 11111000
          -25 callgsubr
          hintmask 11110100
          263 callgsubr
          -77 741 -83 callgsubr
          endchar
        </CharString>
        <CharString name="Ccaron">
          -80 callsubr
          -73 920 -44 callgsubr
        </CharString>
        <CharString name="Ccaron.sc">
          262 callgsubr
          160 -20 78 -20 214 callgsubr
          hintmask 11111010
          -27 callgsubr
          hintmask 11111100
          -25 callgsubr
          hintmask 11111010
          263 callgsubr
          -320 751 -88 callgsubr
          endchar
        </CharString>
        <CharString name="Ccedilla">
          75 82 callgsubr
          88 92 549 304 callsubr
          201 90 3 86 -68 79 hintmask 0101111010000000
          hintmask 0101111001000000
          594 191 rmoveto
          -75 -2 rlineto
          0 -2 -36 -1 -11 vhcurveto
          -8 -14 -34 -2 -7 vhcurveto
          -10 -45 -36 -5 -43 hhcurveto
          -123 -46 122 153 153 47 121 123 hvcurveto
          hintmask 0101111010000000
          39 32 -5 -9 41 hvcurveto
          5 -13 7 -22 -6 vvcurveto
          3 -61 77 -4 12 179 rlineto
          16 -65 -65 18 -86 hhcurveto
          -232 -118 -150 -218 -207 106 -145 209 -14 hvcurveto
          hintmask 0101111100000000
          -8 -88 96 callsubr
          rlineto
          hintmask 0101111001000000
          73 3 65 16 58 14 rrcurveto
          endchar
        </CharString>
        <CharString name="Ccedilla.sc">
          -53 82 callgsubr
          92 84 388 85 hstemhm
          19 169 138 90 -25 75 -61 69 hintmask 0101111001000000
          -27 callgsubr
          hintmask 0101111010000000
          30 18 -2 -5 32 hvcurveto
          4 -7 5 -17 -3 vvcurveto
          4 -53 66 -3 10 149 rlineto
          13 -50 -52 13 -67 hhcurveto
          -188 -95 -114 -165 -154 81 -108 161 -15 hvcurveto
          hintmask 0101111100000000
          -9 -93 rlineto
          hintmask 1010111100000000
          -4 callsubr
          hintmask 0101111001000000
          208 callgsubr
          10 49 rlineto
          hintmask 0101111001000000
          57 2 52 11 44 11 rrcurveto
          endchar
        </CharString>
        <CharString name="Ccircumflex">
          -80 callsubr
          -224 929 -47 callgsubr
          endchar
        </CharString>
        <CharString name="Ccircumflex.sc">
          262 callgsubr
          218 -20 214 callgsubr
          hintmask 11110100
          -27 callgsubr
          hintmask 11111000
          -25 callgsubr
          hintmask 11110100
          263 callgsubr
          -175 751 rmoveto
          155 callsubr
          47 -58 -87 callgsubr
          endchar
        </CharString>
        <CharString name="Cdotaccent">
          75 -15 93 549 93 26 159 176 callgsubr
          92 158 44 86 -68 79 hintmask 11011100
          hintmask 11011010
          594 191 rmoveto
          -75 -2 rlineto
          0 -2 -36 -1 -11 vhcurveto
          -8 -14 -34 -2 -7 vhcurveto
          -10 -45 -36 -5 -43 hhcurveto
          -123 -46 122 153 153 47 121 123 hvcurveto
          hintmask 11011100
          39 32 -5 -9 41 hvcurveto
          5 -13 7 -22 -6 vvcurveto
          3 -61 77 -4 12 179 rlineto
          16 -65 -65 18 -86 hhcurveto
          -232 -118 -150 -218 -218 118 -149 232 hvcurveto
          hintmask 11111010
          85 75 18 16 65 hvcurveto
          -224 886 -37 callgsubr
          endchar
        </CharString>
        <CharString name="Cdotaccent.sc">
          262 callgsubr
          29 159 hstemhm
          19 169 37 158 8 75 -61 69 hintmask 11010010
          -27 callgsubr
          hintmask 11010100
          -25 callgsubr
          hintmask 11010010
          263 callgsubr
          hintmask 11111010
          -174 721 -37 callgsubr
          endchar
        </CharString>
        <CharString name="D">
          -16 callsubr
          endchar
        </CharString>
        <CharString name="D.sc">
          309 callsubr
          hstemhm
          92 145 173 155 hintmask 10101100
          292 543 rmoveto
          -31 -109 -8 1 -30 hvcurveto
          hintmask 01011100
          172 callgsubr
          hintmask 10101100
          4 -62 rlineto
          hintmask 01101100
          309 callgsubr
          hintmask 10101100
          92 callsubr
          endchar
        </CharString>
        <CharString name="Dcaron">
          -16 callsubr
          155 307 -44 callgsubr
        </CharString>
        <CharString name="Dcaron.sc">
          309 callsubr
          187 -20 78 192 callgsubr
          173 155 hintmask 10101111
          292 543 rmoveto
          -31 -109 -8 1 -30 hvcurveto
          hintmask 01011111
          172 callgsubr
          hintmask 10101111
          4 -62 rlineto
          hintmask 01101111
          309 callgsubr
          hintmask 10101111
          92 callsubr
          -140 294 -88 callgsubr
          endchar
        </CharString>
        <CharString name="Dcroat">
          -27 callsubr
        </CharString>
        <CharString name="Dcroat.sc">
          -42 -23 callsubr
        </CharString>
        <CharString name="Delta">
          118 0 80 636 -20 hstem
          22 636 vstem
          636 hmoveto
          22 69 rlineto
          0 -41 80 -9 25 vhcurveto
          -8 22 -210 520 0 vvcurveto
          -104 -11 -195 -500 -69 -139 27 -66 rlineto
          208 80 rmoveto
          -22 -27 0 1 -29 hvcurveto
          5 25 8 37 4 16 122 332 rcurveline
          126 -316 6 -16 9 -44 6 -31 rlinecurve
          -2 -96 -98 -2 -14 hhcurveto
          endchar
        </CharString>
        <CharString name="E">
          54 0 87 -70 -21 320 82 225 82 -70 70 10 -20 44 callgsubr
          hintmask 1011001100000000
          hintmask 1010101100000000
          46 635 rmoveto
          hintmask 0111001100000000
          -81 callsubr
          hintmask 1011001101000000
          -46 callgsubr
          hintmask 0111001101000000
          -56 callsubr
          hintmask 1011001101000000
          -107 callgsubr
          hintmask 1011001110000000
          -85 callgsubr
          hintmask 1010011110000000
          -22 callsubr
          hintmask 1011001100000000
          140 callsubr
          endchar
        </CharString>
        <CharString name="E.sc">
          -68 0 281 callsubr
          234 73 7 46 106 73 -62 62 7 215 callgsubr
          hintmask 0101010011000000
          hintmask 1001001011000000
          -87 callsubr
          hintmask 0011010011000000
          4 -62 rlineto
          hintmask 0101010011000000
          -46 callsubr
          hintmask 0011010011000000
          14 14 rlineto
          hintmask 0101010011000000
          -105 callsubr
          hintmask 0100110011000000
          -34 callsubr
          hintmask 0101010011000000
          -21 callsubr
          hintmask 0101010010100000
          -86 callgsubr
          hintmask 0101000110100000
          -21 callgsubr
          hintmask 0101010010100000
          141 callsubr
          endchar
        </CharString>
        <CharString name="Eacute">
          -107 callsubr
          374 188 237 callgsubr
          314 callgsubr
          195 callgsubr
        </CharString>
        <CharString name="Eacute.sc">
          -68 0 -58 callgsubr
          232 -20 -100 callgsubr
          296 215 rmoveto
          -207 -132 rlineto
          hintmask 0101000101110000
          -75 callgsubr
        </CharString>
        <CharString name="Ebreve">
          54 0 -48 callgsubr
          48 76 53 callsubr
          -124 272 callgsubr
          -54 124 callsubr
          hintmask 1011000110010000
          hintmask 1010100110010000
          46 635 rmoveto
          hintmask 0111000110010000
          -81 callsubr
          hintmask 1011000110010100
          -46 callgsubr
          hintmask 0111000110010100
          -56 callsubr
          hintmask 1011000110010100
          -107 callgsubr
          hintmask 1011000110011000
          -85 callgsubr
          hintmask 1010001110011000
          -22 callsubr
          hintmask 1011000110010000
          140 callsubr
          342 188 rmoveto
          -50 -38 -29 -50 vhcurveto
          hintmask 1010010110100000
          -50 -38 29 50 hvcurveto
          301 callgsubr
          hintmask 1011000101100000
          93 61 55 100 hvcurveto
          endchar
        </CharString>
        <CharString name="Ebreve.sc">
          -68 0 -58 callgsubr
          51 76 hstemhm
          89 66 -63 145 80 57 -43 66 -18 64 hintmask 0101010001011000
          hintmask 1001001001011000
          -87 callsubr
          hintmask 0011010001011000
          4 -62 rlineto
          hintmask 0101010001011000
          -46 callsubr
          hintmask 0011010001011000
          14 14 rlineto
          hintmask 0101010001011000
          -105 callsubr
          hintmask 0100110001011000
          -34 callsubr
          hintmask 0101010001011000
          -21 callsubr
          hintmask 0101010001010010
          -86 callgsubr
          hintmask 0101000011010010
          -21 callgsubr
          hintmask 0101010001010010
          141 callsubr
          287 189 rmoveto
          -50 -38 -29 -50 vhcurveto
          hintmask 0101000101010100
          -50 -38 29 50 hvcurveto
          301 callgsubr
          hintmask 0101010001100100
          93 61 55 100 hvcurveto
          endchar
        </CharString>
        <CharString name="Ecaron">
          -107 callsubr
          408 219 rmoveto
          -67 -49 314 callgsubr
          -84 -41 -24 callgsubr
          endchar
        </CharString>
        <CharString name="Ecaron.sc">
          -68 0 -58 callgsubr
          184 -20 78 -88 callsubr
          57 225 rmoveto
          -52 -58 rlineto
          hintmask 0101000101111000
          -97 callsubr
          endchar
        </CharString>
        <CharString name="Ecircumflex">
          -107 callsubr
          254 238 154 callgsubr
          314 callgsubr
          187 callsubr
        </CharString>
        <CharString name="Ecircumflex.sc">
          -68 0 -58 callgsubr
          242 -20 -100 callgsubr
          199 225 rmoveto
          155 callsubr
          rlineto
          hintmask 0101000101110000
          47 -58 -87 callgsubr
          endchar
        </CharString>
        <CharString name="Ecircumflexacute">
          -107 callsubr
          258 193 callgsubr
          44 221 -8 callsubr
        </CharString>
        <CharString name="Ecircumflexacute.sc">
          -68 0 -58 callgsubr
          193 -20 63 -88 callsubr
          194 219 291 callgsubr
          hintmask 0101000101111000
          49 -39 -64 callsubr
          44 221 -8 callsubr
        </CharString>
        <CharString name="Ecircumflexdotbelow">
          -65 callsubr
          -35 1013 -47 callgsubr
          endchar
        </CharString>
        <CharString name="Ecircumflexdotbelow.sc">
          -68 135 callgsubr
          65 -58 callgsubr
          242 192 callgsubr
          -35 154 -39 57 5 64 hintmask 1010101000110100
          hintmask 1100100100110100
          -87 callsubr
          hintmask 1001101000110100
          4 -62 rlineto
          hintmask 1010101000110100
          -46 callsubr
          hintmask 1001101000110100
          14 14 rlineto
          hintmask 1010101000110100
          -105 callsubr
          hintmask 1010011000110100
          -34 callsubr
          hintmask 1010101000110100
          -21 callsubr
          hintmask 1010101000110010
          -86 callgsubr
          hintmask 1010100001110010
          -21 callgsubr
          hintmask 1010101000110010
          141 callsubr
          199 225 rmoveto
          155 callsubr
          rlineto
          hintmask 1010100010110100
          47 -58 -87 callgsubr
          -162 -687 rmoveto
          -50 -27 -32 -46 130 callsubr
          hvcurveto
          hintmask 1010101000101000
          -51 callgsubr
        </CharString>
        <CharString name="Ecircumflexgrave">
          -107 callsubr
          256 193 callgsubr
          45 98 -6 callsubr
          endchar
        </CharString>
        <CharString name="Ecircumflexgrave.sc">
          -68 0 -58 callgsubr
          193 -20 63 -88 callsubr
          194 219 291 callgsubr
          hintmask 0101000101111000
          49 -39 -64 callsubr
          45 98 -6 callsubr
          endchar
        </CharString>
        <CharString name="Ecircumflexhookabove">
          54 0 -48 callgsubr
          241 45 239 callsubr
          -42 59 -18 72 -54 68 -44 62 hintmask 1011000011000000
          hintmask 1010100011000000
          46 635 rmoveto
          hintmask 0111000011000000
          -81 callsubr
          hintmask 1011000011000100
          -46 callgsubr
          hintmask 0111000011000100
          -56 callsubr
          hintmask 1011000011000100
          -107 callgsubr
          hintmask 1011000011001000
          -85 callgsubr
          hintmask 1010001011001000
          -22 callsubr
          hintmask 1011000011000000
          140 callsubr
          256 218 291 callgsubr
          hintmask 1010010110010000
          49 -39 -64 callsubr
          12 194 rmoveto
          199 callsubr
          -4 vlineto
          -17 14 -11 20 vhcurveto
          hintmask 1011000010100000
          8 16 1 4 6 hvcurveto
          0 -5 10 8 65 callsubr
          endchar
        </CharString>
        <CharString name="Ecircumflexhookabove.sc">
          -68 0 -58 callgsubr
          236 -20 28 45 134 callgsubr
          80 57 -22 59 -32 64 -50 72 hintmask 0101010001011000
          hintmask 1001001001011000
          -87 callsubr
          hintmask 0011010001011000
          4 -62 rlineto
          hintmask 0101010001011000
          -46 callsubr
          hintmask 0011010001011000
          14 14 rlineto
          hintmask 0101010001011000
          -105 callsubr
          hintmask 0100110001011000
          -34 callsubr
          hintmask 0101010001011000
          -21 callsubr
          hintmask 0101010001010010
          -86 callgsubr
          hintmask 0101000011010010
          -21 callgsubr
          hintmask 0101010001010010
          141 callsubr
          187 219 291 callgsubr
          hintmask 0101000101011000
          49 -39 -64 callsubr
          12 194 rmoveto
          -41 -11 -6 -6 -18 hvcurveto
          15 -42 rlineto
          hintmask 0101010001111001
          0 21 9 15 10 8 -5 -9 vhcurveto
          64 callgsubr
          vhcurveto
          hintmask 0101010001010100
          8 16 1 4 6 hvcurveto
          0 -5 10 8 65 callsubr
          endchar
        </CharString>
        <CharString name="Ecircumflextilde">
          54 0 -48 callgsubr
          194 69 -44 68 44 callgsubr
          hintmask 1011000011100000
          hintmask 1010100011100000
          46 635 rmoveto
          hintmask 0111000011100000
          -81 callsubr
          hintmask 1011000011101000
          -46 callgsubr
          hintmask 0111000011101000
          -56 callsubr
          hintmask 1011000011101000
          -107 callgsubr
          hintmask 1011000011110000
          -85 callgsubr
          hintmask 1010001011110000
          -22 callsubr
          hintmask 1011000011100000
          140 callsubr
          254 166 293 callgsubr
          rlineto
          hintmask 1010010101100000
          136 callgsubr
          -36 -41 -65 0 hvcurveto
          33 -27 rlineto
          hintmask 1011000011100000
          0 31 24 24 vhcurveto
          66 callgsubr
          endchar
        </CharString>
        <CharString name="Ecircumflextilde.sc">
          -68 0 -58 callgsubr
          184 -20 33 69 -44 68 107 callsubr
          hintmask 0101010001011100
          hintmask 1001001001011100
          -87 callsubr
          hintmask 0011010001011100
          4 -62 rlineto
          hintmask 0101010001011100
          -46 callsubr
          hintmask 0011010001011100
          14 14 rlineto
          hintmask 0101010001011100
          -105 callsubr
          hintmask 0100110001011100
          -34 callsubr
          hintmask 0101010001011100
          -21 callsubr
          hintmask 0101010001011010
          -86 callgsubr
          hintmask 0101000011011010
          -21 callgsubr
          hintmask 0101010001011010
          141 callsubr
          197 167 293 callgsubr
          rlineto
          hintmask 0101000101011100
          136 callgsubr
          hintmask 0101010001101100
          -36 -41 -65 0 hvcurveto
          33 -27 rlineto
          hintmask 0101010001011100
          0 31 24 24 vhcurveto
          66 callgsubr
          endchar
        </CharString>
        <CharString name="Edieresis">
          54 0 -48 callgsubr
          62 139 hstemhm
          119 135 -134 155 82 134 -86 124 callsubr
          hintmask 1011000101010000
          hintmask 1010100101010000
          46 635 rmoveto
          hintmask 0111000101010000
          -81 callsubr
          hintmask 1011000101010100
          -46 callgsubr
          hintmask 0111000101010100
          -56 callsubr
          hintmask 1011000101010100
          -107 callgsubr
          hintmask 1011000101011000
          -85 callgsubr
          hintmask 1010001101011000
          -22 callsubr
          hintmask 1011000101010000
          140 callsubr
          136 186 130 callgsubr
          hvcurveto
          hintmask 1010010101010000
          -41 24 -28 44 vhcurveto
          hintmask 1011000110100000
          -90 callsubr
        </CharString>
        <CharString name="Edieresis.sc">
          -68 0 -58 callgsubr
          63 139 hstemhm
          57 135 -100 145 58 134 -112 57 5 64 hintmask 0101010001010100
          hintmask 1001001001010100
          -87 callsubr
          hintmask 0011010001010100
          4 -62 rlineto
          hintmask 0101010001010100
          -46 callsubr
          hintmask 0011010001010100
          14 14 rlineto
          hintmask 0101010001010100
          -105 callsubr
          hintmask 0100110001010100
          -34 callsubr
          hintmask 0101010001010100
          -21 callsubr
          hintmask 0101010001010010
          -86 callgsubr
          hintmask 0101000011010010
          -21 callgsubr
          hintmask 0101010001010010
          141 callsubr
          81 185 130 callgsubr
          hvcurveto
          hintmask 0101000101010100
          -41 24 -28 44 vhcurveto
          hintmask 0101010001101000
          -90 callsubr
        </CharString>
        <CharString name="Edotaccent">
          54 0 -48 callgsubr
          51 159 53 callsubr
          -46 158 18 124 callsubr
          hintmask 1011000010100000
          hintmask 1010100010100000
          46 635 rmoveto
          hintmask 0111000010100000
          -81 callsubr
          hintmask 1011000010101000
          -46 callgsubr
          hintmask 0111000010101000
          -56 callsubr
          hintmask 1011000010101000
          -107 callgsubr
          hintmask 1011000010110000
          -85 callgsubr
          hintmask 1010001010110000
          -22 callsubr
          hintmask 1011000010100000
          140 callsubr
          257 195 rmoveto
          -51 -28 -33 -47 hvcurveto
          hintmask 1010010010100000
          186 callsubr
          vhcurveto
          hintmask 1011000101100000
          -3 callgsubr
          endchar
        </CharString>
        <CharString name="Edotaccent.sc">
          -68 0 -58 callgsubr
          53 159 134 callgsubr
          -69 158 -9 57 5 64 hintmask 0101010001101000
          hintmask 1001001001101000
          -87 callsubr
          hintmask 0011010001101000
          4 -62 rlineto
          hintmask 0101010001101000
          -46 callsubr
          hintmask 0011010001101000
          14 14 rlineto
          hintmask 0101010001101000
          -105 callsubr
          hintmask 0100110001101000
          -34 callsubr
          hintmask 0101010001101000
          -21 callsubr
          hintmask 0101010001100100
          -86 callgsubr
          hintmask 0101000011100100
          -21 callgsubr
          hintmask 0101010001100100
          141 callsubr
          203 195 rmoveto
          -51 -28 -33 -47 hvcurveto
          hintmask 0101000101101000
          186 callsubr
          vhcurveto
          hintmask 0101010001010000
          -3 callgsubr
          endchar
        </CharString>
        <CharString name="Edotbelow">
          -65 callsubr
          endchar
        </CharString>
        <CharString name="Edotbelow.sc">
          -68 135 callgsubr
          65 -58 callgsubr
          hstemhm
          92 145 -35 154 -39 57 5 64 hintmask 1010101000101000
          hintmask 1100100100101000
          -87 callsubr
          hintmask 1001101000101000
          4 -62 rlineto
          hintmask 1010101000101000
          -46 callsubr
          hintmask 1001101000101000
          14 14 rlineto
          hintmask 1010101000101000
          -105 callsubr
          hintmask 1010011000101000
          -34 callsubr
          hintmask 1010101000101000
          -21 callsubr
          hintmask 1010101000100100
          -86 callgsubr
          hintmask 1010100001100100
          -21 callgsubr
          hintmask 1010101000100100
          141 callsubr
          235 -605 rmoveto
          -50 -27 -32 -46 hvcurveto
          hintmask 1010100010101000
          130 callsubr
          vhcurveto
          hintmask 1010101000010000
          -51 callgsubr
        </CharString>
        <CharString name="Egrave">
          -107 callsubr
          370 94 rmoveto
          -237 104 314 callgsubr
          33 callgsubr
          endchar
        </CharString>
        <CharString name="Egrave.sc">
          -68 0 -58 callgsubr
          232 -20 -100 callgsubr
          309 83 rmoveto
          -207 132 rlineto
          hintmask 0101000101110000
          -42 callgsubr
          endchar
        </CharString>
        <CharString name="Ehookabove">
          54 0 -48 callgsubr
          208 56 53 callsubr
          -4 67 -18 83 2 124 callsubr
          hintmask 1011000110010000
          hintmask 1010100110010000
          46 635 rmoveto
          hintmask 0111000110010000
          -81 callsubr
          hintmask 1011000110010100
          -46 callgsubr
          hintmask 0111000110010100
          -56 callsubr
          hintmask 1011000110010100
          -107 callgsubr
          hintmask 1011000110011000
          -85 callgsubr
          hintmask 1010001110011000
          -22 callsubr
          hintmask 1011000110010000
          140 callsubr
          258 249 300 callgsubr
          hintmask 1010010110100000
          16 -49 rlineto
          211 callgsubr
          hintmask 1011000101010000
          11 12 2 5 5 hvcurveto
          185 callsubr
          -37 callsubr
          endchar
        </CharString>
        <CharString name="Ehookabove.sc">
          -68 0 -58 callgsubr
          169 56 134 callgsubr
          -28 67 -18 83 -24 57 5 64 hintmask 0101010001100100
          hintmask 1001001001100100
          -87 callsubr
          hintmask 0011010001100100
          4 -62 rlineto
          hintmask 0101010001100100
          -46 callsubr
          hintmask 0011010001100100
          14 14 rlineto
          hintmask 0101010001100100
          -105 callsubr
          hintmask 0100110001100100
          -34 callsubr
          hintmask 0101010001100100
          -21 callsubr
          hintmask 0101010001100010
          -86 callgsubr
          hintmask 0101000011100010
          -21 callgsubr
          hintmask 0101010001100010
          141 callsubr
          203 208 300 callgsubr
          hintmask 0101000101100100
          16 -49 rlineto
          hintmask 0101010001101000
          211 callgsubr
          hintmask 0101010001010100
          11 12 2 5 5 hvcurveto
          185 callsubr
          -37 callsubr
          endchar
        </CharString>
        <CharString name="Emacron">
          54 0 -48 callgsubr
          76 73 44 callgsubr
          hintmask 1011000111000000
          hintmask 1010100111000000
          46 635 rmoveto
          hintmask 0111000111000000
          -81 callsubr
          hintmask 1011000111010000
          -46 callgsubr
          hintmask 0111000111010000
          -56 callsubr
          hintmask 1011000111010000
          -107 callgsubr
          hintmask 1011000111100000
          -85 callgsubr
          hintmask 1010001111100000
          -22 callsubr
          hintmask 1011000111000000
          140 callsubr
          411 61 rmoveto
          7 73 rlineto
          hintmask 1010010111000000
          -322 -73 hlineto
          endchar
        </CharString>
        <CharString name="Emacron.sc">
          -68 0 -58 callgsubr
          73 73 -100 callgsubr
          357 56 rmoveto
          7 73 rlineto
          hintmask 0101000101110000
          -322 -73 hlineto
          endchar
        </CharString>
        <CharString name="Eng">
          253 0 74 -58 -21 628 82 -79 84 -25 20 302 callsubr
          333 127 hintmask 10010110
          132 callgsubr
          hintmask 10001110
          -100 5 rlineto
          hintmask 10010110
          -5 -75 rlineto
          hintmask 10100110
          17 callsubr
          hintmask 10001110
          -19 20 rlineto
          -102 hlineto
          -93 callsubr
          hintmask 10010110
          65 -12 rlineto
          hintmask 01100110
          -22 callgsubr
          hintmask 10010110
          152 callgsubr
          hintmask 01010110
          257 vlineto
          hintmask 10010110
          280 callgsubr
          -4 -19 -72 -150 0 vvcurveto
          54 -31 85 85 76 84 -4 31 rlinecurve
          542 vlineto
          151 callsubr
          endchar
        </CharString>
        <CharString name="Eng.sc">
          90 175 callsubr
          14 220 callsubr
          -84 5 -4 -63 45 -12 rlineto
          1 -11 6 -48 -37 vvcurveto
          -167 vlineto
          -153 208 rlineto
          hintmask 10011100
          -11 17 -53 93 0 vvcurveto
          -14 14 rlineto
          -102 hlineto
          hintmask 10101100
          -47 1 -24 4 0 vvcurveto
          28 callsubr
          rlineto
          hintmask 01101100
          4 -62 rlineto
          0 26 4 47 vhcurveto
          hintmask 10101100
          101 45 12 callsubr
          hintmask 01101100
          -44 4 rlineto
          hintmask 10101100
          283 callgsubr
          140 vlineto
          226 -300 rlineto
          -6 -58 -117 0 vhcurveto
          50 -27 83 76 60 54 -4 25 rlinecurve
          0 -1 58 42 vvcurveto
          315 vlineto
          7 4 35 1 6 vhcurveto
          46 hlineto
          endchar
        </CharString>
        <CharString name="Eogonek">
          54 -197 64 133 87 -71 -21 23 -21 319 82 225 82 -70 70 10 244 callsubr
          40 107 -17 124 callsubr
          hintmask 1100110010100000
          hintmask 1100101010100000
          46 635 rmoveto
          hintmask 1010110010100000
          -81 callsubr
          0 53 4 48 1 vhcurveto
          hintmask 1100110011000000
          234 hlineto
          -32 -30 -38 -24 -54 -38 callsubr
          65 72 17 29 hvcurveto
          hintmask 1001110011001000
          12 12 -1 0 hvcurveto
          -56 callsubr
          hintmask 1100110010101000
          -107 callgsubr
          hintmask 1100110010110000
          -85 callgsubr
          hintmask 1100100110110000
          -22 callsubr
          hintmask 1100110010100000
          140 callsubr
          endchar
        </CharString>
        <CharString name="Eogonek.sc">
          -68 -197 64 133 61 -61 79 -62 -21 22 -21 234 73 7 46 106 73 -62 62 7 192 callgsubr
          -8 107 -19 57 5 64 hintmask 1010010100101000
          hintmask 1100010010101000
          -87 callsubr
          hintmask 1001010100101000
          4 -62 rlineto
          102 callgsubr
          hintmask 1010010100010000
          184 hlineto
          -32 -30 -38 -24 -54 -38 callsubr
          65 72 17 30 hvcurveto
          hintmask 1000110100010000
          14 14 rlineto
          hintmask 1010010100101000
          -105 callsubr
          hintmask 1010001100101000
          -34 callsubr
          hintmask 1010010100101000
          -21 callsubr
          hintmask 1010010100100100
          -86 callgsubr
          hintmask 1010010001100100
          -21 callgsubr
          hintmask 1010010100100100
          141 callsubr
          endchar
        </CharString>
        <CharString name="Eth">
          -27 callsubr
        </CharString>
        <CharString name="Eth.sc">
          12 -23 callsubr
        </CharString>
        <CharString name="Etilde">
          54 0 -48 callgsubr
          59 91 -53 91 44 callgsubr
          hintmask 1011000101100000
          hintmask 1010100101100000
          46 635 rmoveto
          hintmask 0111000101100000
          -81 callsubr
          hintmask 1011000101101000
          -46 callgsubr
          hintmask 0111000101101000
          -56 callsubr
          hintmask 1011000101101000
          -107 callgsubr
          hintmask 1011000101110000
          -85 callgsubr
          hintmask 1010001101110000
          -22 callsubr
          hintmask 1011000101100000
          140 callsubr
          408 173 41 callsubr
          hintmask 1010010101100000
          -42 -101 180 callsubr
          hintmask 1011000011100000
          264 callsubr
          43 99 -44 callsubr
        </CharString>
        <CharString name="Etilde.sc">
          -68 0 -58 callgsubr
          71 91 -53 91 107 callsubr
          hintmask 0101010001011000
          hintmask 1001001001011000
          -87 callsubr
          hintmask 0011010001011000
          4 -62 rlineto
          hintmask 0101010001011000
          -46 callsubr
          hintmask 0011010001011000
          14 14 rlineto
          hintmask 0101010001011000
          -105 callsubr
          hintmask 0100110001011000
          -34 callsubr
          hintmask 0101010001011000
          -21 callsubr
          hintmask 0101010001010100
          -86 callgsubr
          hintmask 0101000011010100
          -21 callgsubr
          hintmask 0101010001010100
          141 callsubr
          311 183 41 callsubr
          hintmask 0101000101011000
          201 callsubr
          hintmask 0101010000111000
          115 callgsubr
          43 45 101 0 hvcurveto
          endchar
        </CharString>
        <CharString name="Euro">
          142 -15 89 150 65 -52 64 29 65 -52 64 171 89 hstemhm
          127 170 271 81 -63 74 hintmask 1010111100000000
          hintmask 1101011010000000
          37 328 rmoveto
          90 4 rlineto
          -7 vlineto
          -12 1 -11 -11 vvcurveto
          -88 -4 2 -65 95 4 rlineto
          -146 31 105 -95 176 hhcurveto
          82 70 17 16 63 hvcurveto
          -8 159 -70 -1 rlineto
          0 -2 -34 -1 -10 vhcurveto
          -8 -13 -32 -3 -7 vhcurveto
          -7 -38 -36 -4 -40 hhcurveto
          hintmask 1010111100000000
          -85 -47 65 95 -17 hvcurveto
          148 7 -2 64 -152 -7 rlineto
          -1 9 0 9 10 vvcurveto
          14 vlineto
          150 7 -2 64 -143 -6 rlineto
          101 15 47 72 90 hhcurveto
          36 32 -4 -6 35 hvcurveto
          4 -12 7 -21 -6 vvcurveto
          3 -45 72 -3 12 153 rlineto
          16 -62 -62 17 -82 hhcurveto
          hintmask 1011011100000000
          -186 -107 -108 -162 -24 hvcurveto
          -97 -4 rlineto
          endchar
        </CharString>
        <CharString name="F">
          7 0 74 -58 -21 310 82 236 82 -70 70 5 -20 25 -20 248 callsubr
          hintmask 1011000110000000
          hintmask 1010001110000000
          533 715 rmoveto
          0 -94 -10 -20 vhcurveto
          hintmask 1011000110000000
          -268 hlineto
          -93 callsubr
          hintmask 1010010110000000
          65 -12 rlineto
          hintmask 1010100110000000
          4 -14 5 -47 -50 vvcurveto
          hintmask 0111000110000000
          79 callsubr
          -6 -56 -3 128 callsubr
          5 47 113 111 93 callgsubr
          hintmask 1011000110000000
          -95 6 rlineto
          -4 17 -5 46 50 vvcurveto
          hintmask 0111000110000000
          114 vlineto
          hintmask 1011000110000000
          1 8 11 0 6 hhcurveto
          37 hlineto
          20 44 -6 0 hvcurveto
          9 -60 64 6 rlineto
          0 -3 77 50 vvcurveto
          20 1 63 0 vhcurveto
          -62 5 -9 -64 rlineto
          0 -24 -9 -20 vhcurveto
          -58 hlineto
          -6 -7 0 1 -11 hvcurveto
          154 vlineto
          16 3 47 1 18 vhcurveto
          110 hlineto
          30 30 -3 -2 20 183 callgsubr
          3 -28 2 -16 rrcurveto
          hintmask 1011000111000000
          72 5 -7 156 rlineto
          endchar
        </CharString>
        <CharString name="F.sc">
          -110 134 callsubr
          225 74 6 46 116 73 -62 62 4 -20 23 192 callgsubr
          80 57 3 66 hintmask 1010100011000000
          hintmask 1010000110100000
          426 543 rmoveto
          0 -72 -7 -15 vhcurveto
          hintmask 1010100010100000
          -224 hlineto
          -47 -24 -16 callgsubr
          hintmask 1010001011000000
          45 -9 rlineto
          hintmask 0110010011000000
          4 -11 3 -36 -23 callgsubr
          -4 -46 -3 -7 vhcurveto
          -45 3 callgsubr
          22 4 47 101 99 -4 0 vhcurveto
          3 65 rlineto
          hintmask 1010100011000000
          -71 4 rlineto
          -4 14 -4 34 41 vvcurveto
          hintmask 0110100011000000
          67 vlineto
          hintmask 1010100011000000
          1 3 6 -1 3 hhcurveto
          23 hlineto
          15 27 -4 0 hvcurveto
          7 -43 56 5 rlineto
          0 -2 66 38 vvcurveto
          62 vlineto
          -54 4 -7 -48 rlineto
          hintmask 1001100011000000
          0 -12 -6 -15 vhcurveto
          -39 hlineto
          -4 -1 -1 1 -6 hvcurveto
          119 vlineto
          hintmask 1010100011000000
          2 2 34 13 vvcurveto
          77 hlineto
          23 23 -3 -1 15 hvcurveto
          -7 2 -4 -2 vvcurveto
          3 -11 2 -24 1 -12 rrcurveto
          hintmask 1010100010100000
          61 4 -5 127 rlineto
          endchar
        </CharString>
        <CharString name="G">
          115 callsubr
          hstemhm
          27 180 291 134 -104 88 hintmask 11111000
          -96 callgsubr
          hintmask 11110100
          21 callgsubr
          hintmask 11111000
          217 callsubr
          endchar
        </CharString>
        <CharString name="G.sc">
          129 callgsubr
          249 callgsubr
          hintmask 11111000
          -93 callgsubr
          hintmask 11110100
          21 callsubr
          hintmask 11111000
          215 callsubr
          endchar
        </CharString>
        <CharString name="Gbreve">
          115 callsubr
          23 76 176 callgsubr
          32 272 callgsubr
          -49 134 -104 88 hintmask 1110110100000000
          -96 callgsubr
          hintmask 1110110010000000
          21 callgsubr
          hintmask 1110110100000000
          217 callsubr
          hintmask 1111111000000000
          87 178 rmoveto
          -50 callgsubr
          endchar
        </CharString>
        <CharString name="Gbreve.sc">
          129 callgsubr
          27 76 hstemhm
          19 170 -32 66 154 124 -102 66 -54 78 hintmask 1110101000000000
          -93 callgsubr
          hintmask 1110100010000000
          21 callsubr
          hintmask 1110101000000000
          215 callsubr
          hintmask 1111010100000000
          84 182 rmoveto
          -50 callgsubr
          endchar
        </CharString>
        <CharString name="Gcircumflex">
          115 callsubr
          hstemhm
          27 180 291 134 -104 88 hintmask 11111000
          -96 callgsubr
          hintmask 11110100
          21 callgsubr
          hintmask 11111000
          217 callsubr
          -1 218 -47 callgsubr
          endchar
        </CharString>
        <CharString name="Gcircumflex.sc">
          129 callgsubr
          218 -20 249 callgsubr
          hintmask 11111100
          -93 callgsubr
          hintmask 11111010
          21 callsubr
          hintmask 11111100
          215 callsubr
          -4 218 rmoveto
          155 callsubr
          47 -58 -87 callgsubr
          endchar
        </CharString>
        <CharString name="Gcommaaccent">
          115 callsubr
          hstemhm
          27 180 106 130 55 134 -104 88 hintmask 11111100
          -96 callgsubr
          hintmask 11111010
          21 callgsubr
          hintmask 11111100
          217 callsubr
          -81 -846 180 callgsubr
          -60 callgsubr
        </CharString>
        <CharString name="Gcommaaccent.sc">
          129 callgsubr
          hstemhm
          19 170 65 130 -7 124 -90 78 hintmask 11110100
          -93 callgsubr
          hintmask 11110010
          21 callsubr
          hintmask 11110100
          215 callsubr
          hintmask 11111000
          -61 -673 180 callgsubr
          -60 callgsubr
        </CharString>
        <CharString name="Gdieresis">
          115 callsubr
          37 139 176 callgsubr
          0 141 callgsubr
          -81 134 -104 88 hintmask 1111100100000000
          -96 callgsubr
          hintmask 1111100010000000
          21 callgsubr
          hintmask 1111100100000000
          217 callsubr
          hintmask 1111011000000000
          -119 176 -82 callgsubr
        </CharString>
        <CharString name="Gdieresis.sc">
          129 callgsubr
          39 139 hstemhm
          19 170 -64 141 callgsubr
          -120 124 -90 78 hintmask 1111100100000000
          -93 callgsubr
          hintmask 1111100010000000
          21 callsubr
          hintmask 1111100100000000
          215 callsubr
          hintmask 1111011000000000
          -122 178 -82 callgsubr
        </CharString>
        <CharString name="Gdotaccent">
          115 callsubr
          26 159 176 callgsubr
          107 158 26 134 -104 88 hintmask 11101010
          -96 callgsubr
          hintmask 11101001
          21 callgsubr
          hintmask 11101010
          217 callsubr
          hintmask 11111110
          -1 185 -37 callgsubr
          endchar
        </CharString>
        <CharString name="Gdotaccent.sc">
          129 callgsubr
          29 159 hstemhm
          19 170 44 158 -14 124 -90 78 hintmask 11101010
          -93 callgsubr
          hintmask 11101001
          21 callsubr
          hintmask 11101010
          215 callsubr
          hintmask 11111100
          -3 188 -37 callgsubr
          endchar
        </CharString>
        <CharString name="Gtilde">
          115 callsubr
          34 91 -53 91 176 callgsubr
          291 134 -104 88 hintmask 11110110
          -96 callgsubr
          hintmask 11110101
          21 callgsubr
          hintmask 11110110
          217 callsubr
          144 163 41 callsubr
          hintmask 11101110
          -42 -101 -69 callsubr
          hintmask 11110110
          43 99 -44 callsubr
        </CharString>
        <CharString name="Gtilde.sc">
          129 callgsubr
          47 91 -53 91 249 callgsubr
          hintmask 11110110
          -93 callgsubr
          hintmask 11110101
          21 callsubr
          hintmask 11110110
          215 callsubr
          121 176 41 callsubr
          hintmask 11101110
          -42 -81 -69 callsubr
          hintmask 11110110
          43 79 -44 callsubr
        </CharString>
        <CharString name="H">
          -54 callgsubr
          endchar
        </CharString>
        <CharString name="H.sc">
          105 134 callsubr
          223 82 166 69 -69 73 134 callgsubr
          192 145 hintmask 10110110
          hintmask 10101110
          624 112 callgsubr
          -72 -4 -101 vhcurveto
          hintmask 10110110
          -47 30 callsubr
          hintmask 10101110
          45 -9 rlineto
          hintmask 10110110
          157 callgsubr
          hintmask 10101110
          -47 -24 -16 callgsubr
          hintmask 10110110
          45 204 callgsubr
          hintmask 10101110
          -231 vlineto
          hintmask 10110110
          199 callgsubr
          hintmask 01110110
          -40 34 callgsubr
          hintmask 10110110
          61 192 vlineto
          hintmask 01110110
          -84 vlineto
          hintmask 10110110
          87 callsubr
          hintmask 01110110
          73 callsubr
          hintmask 10110110
          46 4 rlineto
          endchar
        </CharString>
        <CharString name="Hbar">
          265 0 74 -58 -21 307 89 96 64 75 95 callsubr
          277 155 hintmask 10111011
          hintmask 10110111
          777 2 callgsubr
          hintmask 10111011
          -93 callsubr
          hintmask 10110111
          65 -12 rlineto
          hintmask 10111011
          1 -12 5 -27 2 -33 rrcurveto
          -276 hlineto
          1 22 5 37 3 13 66 6 rcurveline
          -5 81 rlineto
          44 callsubr
          hintmask 10110111
          -93 callsubr
          hintmask 10111011
          65 -12 1 -12 5 -27 2 -33 rlinecurve
          hintmask 10110111
          -89 hlineto
          hintmask 01111011
          -64 90 -324 vlineto
          155 callgsubr
          hintmask 10111011
          109 277 vlineto
          hintmask 01111011
          -139 vlineto
          hintmask 10111011
          114 callgsubr
          hintmask 01111011
          -57 callsubr
          294 90 vlineto
          hintmask 10111011
          64 -90 vlineto
          hintmask 01111011
          1 22 5 37 3 13 rrcurveto
          hintmask 10111011
          66 6 rlineto
          -507 -240 rmoveto
          98 277 -94 vlineto
          endchar
        </CharString>
        <CharString name="Hbar.sc">
          105 134 callsubr
          223 82 58 57 51 69 -69 73 134 callgsubr
          192 145 hintmask 10111011
          hintmask 10110111
          624 112 callgsubr
          -72 -4 -101 vhcurveto
          hintmask 10111011
          -47 30 callsubr
          hintmask 10110111
          45 -9 rlineto
          hintmask 10111011
          1 -9 3 -16 1 -24 rrcurveto
          -190 hlineto
          9 5 29 3 11 295 callgsubr
          hintmask 10110111
          -47 -24 -16 callgsubr
          hintmask 10111011
          45 -9 1 -9 3 -16 1 -24 rlinecurve
          hintmask 10110111
          -68 hlineto
          hintmask 10111011
          -57 70 -224 vlineto
          199 callgsubr
          hintmask 01111011
          -40 34 callgsubr
          hintmask 10111011
          61 192 vlineto
          hintmask 01111011
          -84 vlineto
          hintmask 10111011
          87 callsubr
          hintmask 01111011
          201 64 vlineto
          hintmask 10111011
          57 -64 vlineto
          hintmask 01111011
          9 5 29 3 11 vhcurveto
          hintmask 10111011
          46 4 rlineto
          -391 -169 rmoveto
          59 192 -56 vlineto
          endchar
        </CharString>
        <CharString name="Hcircumflex">
          -54 callgsubr
          -368 309 rmoveto
          hintmask 01110110
          -198 -133 rlineto
          hintmask 10110110
          187 callsubr
        </CharString>
        <CharString name="Hcircumflex.sc">
          105 134 callsubr
          223 82 166 69 -69 73 225 192 callgsubr
          192 145 hintmask 10110111
          hintmask 10101111
          624 112 callgsubr
          -72 -4 -101 vhcurveto
          hintmask 10110111
          -47 30 callsubr
          hintmask 10101111
          45 -9 rlineto
          hintmask 10110111
          157 callgsubr
          hintmask 10101111
          -47 -24 -16 callgsubr
          hintmask 10110111
          45 204 callgsubr
          hintmask 10101111
          -231 vlineto
          hintmask 10110111
          199 callgsubr
          hintmask 01110111
          -40 34 callgsubr
          hintmask 10110111
          61 192 vlineto
          hintmask 01110111
          -84 vlineto
          hintmask 10110111
          87 callsubr
          hintmask 01110111
          73 callsubr
          hintmask 10110111
          46 4 rlineto
          -295 296 rmoveto
          hintmask 01110111
          155 callsubr
          rlineto
          hintmask 10110111
          47 -58 -87 callgsubr
          endchar
        </CharString>
        <CharString name="I">
          -90 callgsubr
          endchar
        </CharString>
        <CharString name="I.sc">
          16 callsubr
        </CharString>
        <CharString name="IJ">
          164 0 74 -58 -21 632 77 6 -20 hstemhm
          125 155 183 155 hintmask 10101100
          hintmask 10011100
          688 2 callgsubr
          hintmask 10101100
          -338 hlineto
          179 callsubr
          4 -19 5 -42 184 callsubr
          -8 -54 -1 -12 vhcurveto
          -66 -12 -94 callgsubr
          113 81 93 callgsubr
          hintmask 10101100
          -65 6 rlineto
          -1 9 -8 57 50 vvcurveto
          hintmask 01101100
          349 vlineto
          hintmask 10101100
          20 5 47 4 14 vhcurveto
          83 9 82 -9 rlineto
          3 -15 6 -46 -50 vvcurveto
          -501 vlineto
          -20 -76 -160 0 vhcurveto
          54 -31 rlineto
          96 89 81 78 33 vvcurveto
          542 vlineto
          20 7 52 2 9 186 callgsubr
          endchar
        </CharString>
        <CharString name="IJ.sc">
          50 134 callsubr
          471 68 5 -20 hstemhm
          96 145 141 145 hintmask 10101100
          hintmask 10011100
          577 112 callgsubr
          -72 -4 -101 vhcurveto
          hintmask 10101100
          -286 hlineto
          72 callsubr
          4 -17 3 -30 -23 callgsubr
          -7 -44 -9 6 callsubr
          -1 5 -7 46 131 callgsubr
          4 34 4 11 vhcurveto
          64 5 62 -5 rlineto
          3 -13 4 -34 -52 vvcurveto
          -358 vlineto
          -15 -57 -118 0 vhcurveto
          50 -27 rlineto
          93 81 59 48 27 vvcurveto
          410 vlineto
          6 6 40 2 5 146 callgsubr
          endchar
        </CharString>
        <CharString name="Iacute">
          -90 callgsubr
          -32 269 -54 callsubr
        </CharString>
        <CharString name="Iacute.sc">
          36 callgsubr
          235 -20 hstemhm
          96 145 -40 callgsubr
          -29 286 -83 callgsubr
          endchar
        </CharString>
        <CharString name="Ibreve">
          45 callsubr
          53 76 hstemhm
          49 66 10 155 11 66 hintmask 10101010
          hintmask 10011010
          350 -38 callgsubr
          -64 269 188 callsubr
        </CharString>
        <CharString name="Ibreve.sc">
          36 callgsubr
          54 76 hstemhm
          14 66 16 145 15 66 -40 callsubr
          -39 260 188 callsubr
        </CharString>
        <CharString name="Icaron">
          -90 callgsubr
          -1 300 -44 callgsubr
        </CharString>
        <CharString name="Icaron.sc">
          36 callgsubr
          187 -20 78 -20 hstemhm
          96 145 hintmask 10101110
          hintmask 10011110
          290 112 callgsubr
          -72 -4 -100 vhcurveto
          hintmask 10101110
          -47 30 callsubr
          hintmask 10011110
          45 -9 rlineto
          hintmask 10101110
          -68 callsubr
          hintmask 01101110
          100 69 12 callsubr
          hintmask 10101110
          33 callsubr
          hintmask 01101110
          256 vlineto
          hintmask 10101110
          49 callgsubr
          -273 296 -88 callgsubr
          endchar
        </CharString>
        <CharString name="Icircumflex">
          -90 callgsubr
          -152 309 -47 callgsubr
          endchar
        </CharString>
        <CharString name="Icircumflex.sc">
          36 callgsubr
          245 -20 hstemhm
          96 145 -40 callgsubr
          -127 178 callgsubr
        </CharString>
        <CharString name="Idieresis">
          45 callsubr
          67 139 hstemhm
          50 130 -55 155 -55 129 hintmask 10101010
          hintmask 10011010
          350 -38 callgsubr
          -240 267 201 callgsubr
          hvcurveto
          hintmask 10101101
          44 -24 26 -41 vhcurveto
          83 callgsubr
        </CharString>
        <CharString name="Idieresis.sc">
          36 callgsubr
          66 139 hstemhm
          15 130 -49 145 -51 129 -40 callsubr
          -215 256 201 callgsubr
          hvcurveto
          hintmask 10101101
          44 -24 26 -41 vhcurveto
          83 callgsubr
        </CharString>
        <CharString name="Idotaccent">
          45 callsubr
          56 159 hstemhm
          125 155 hintmask 10101100
          hintmask 10011100
          350 -33 callsubr
          -152 276 -37 callgsubr
          endchar
        </CharString>
        <CharString name="Idotaccent.sc">
          36 callgsubr
          56 159 hstemhm
          90 158 -152 145 -40 callsubr
          -126 266 rmoveto
          -51 -28 -33 -47 186 callsubr
          51 28 32 47 hvcurveto
          hintmask 10101100
          50 -30 30 -49 vhcurveto
          endchar
        </CharString>
        <CharString name="Idotbelow">
          -157 135 callgsubr
          65 74 callsubr
          hstemhm
          125 155 hintmask 11010100
          hintmask 11001100
          350 2 callgsubr
          hintmask 11010100
          -93 callsubr
          hintmask 11001100
          65 -12 rlineto
          hintmask 10110100
          -70 callsubr
          81 80 callgsubr
          76 rlineto
          hintmask 11010100
          -57 callsubr
          hintmask 10110100
          349 vlineto
          hintmask 11010100
          2 callsubr
          -152 -694 -80 callgsubr
          endchar
        </CharString>
        <CharString name="Idotbelow.sc">
          -225 242 callsubr
          471 69 4 -20 hstemhm
          88 154 -146 145 hintmask 11010010
          hintmask 11001010
          290 112 callgsubr
          -72 -4 -100 vhcurveto
          hintmask 11010010
          -47 30 callsubr
          hintmask 11001010
          45 -9 rlineto
          hintmask 11010010
          -68 callsubr
          hintmask 10110010
          100 69 12 callsubr
          hintmask 11010010
          33 callsubr
          hintmask 10110010
          256 vlineto
          hintmask 11010010
          49 callgsubr
          -130 -534 rmoveto
          -50 -27 -32 -46 276 callsubr
          hvcurveto
          hintmask 11010100
          313 callsubr
        </CharString>
        <CharString name="Igrave">
          -90 callgsubr
          -36 212 callgsubr
        </CharString>
        <CharString name="Igrave.sc">
          36 callgsubr
          235 -20 hstemhm
          86 145 hintmask 10101100
          hintmask 10011100
          280 112 callgsubr
          -72 -4 -100 vhcurveto
          hintmask 10101100
          72 callsubr
          1 -14 6 -33 -52 vvcurveto
          -231 vlineto
          -17 -7 -46 -7 6 callsubr
          -2 11 -6 40 131 callgsubr
          5 33 3 12 vhcurveto
          46 4 rlineto
          -16 154 -47 callsubr
          endchar
        </CharString>
        <CharString name="Ihookabove">
          45 callsubr
          193 56 hstemhm
          125 155 -120 67 -18 83 hintmask 10101100
          hintmask 10011100
          350 -33 callsubr
          -157 310 86 callgsubr
        </CharString>
        <CharString name="Ihookabove.sc">
          36 callgsubr
          172 56 hstemhm
          96 145 -125 67 -18 83 -40 callgsubr
          -141 279 86 callgsubr
        </CharString>
        <CharString name="Imacron">
          45 callsubr
          81 73 hstemhm
          117 155 hintmask 10101100
          hintmask 10011100
          342 -33 callsubr
          -8 142 252 callgsubr
        </CharString>
        <CharString name="Imacron.sc">
          36 callgsubr
          76 73 hstemhm
          64 145 hintmask 10101100
          hintmask 10011100
          258 112 callgsubr
          -72 -4 -100 vhcurveto
          hintmask 10101100
          72 callsubr
          1 -14 6 -33 -52 vvcurveto
          -231 vlineto
          -17 -7 -46 -7 6 callsubr
          -2 11 -6 40 131 callgsubr
          5 33 3 12 vhcurveto
          46 4 rlineto
          18 127 252 callgsubr
        </CharString>
        <CharString name="Iogonek">
          -157 -197 64 128 79 -53 -21 626 79 5 -20 hstemhm
          20 107 -2 155 hintmask 11010010
          125 163 rmoveto
          -184 -105 4 -91 vvcurveto
          hintmask 10110100
          48 callgsubr
          hintmask 11010010
          87 -1 60 -4 0 vvcurveto
          5 76 -65 245 callsubr
          66 6 rlineto
          hintmask 11001010
          -5 81 rlineto
          44 callsubr
          hintmask 11010010
          -93 callsubr
          hintmask 11001010
          65 -12 rlineto
          hintmask 11010010
          2 -16 7 -45 -50 vvcurveto
          endchar
        </CharString>
        <CharString name="Iogonek.sc">
          -225 -197 64 129 67 -42 -21 467 69 4 -20 hstemhm
          -9 107 -2 145 hintmask 11010010
          96 163 rmoveto
          -184 -105 4 -91 vvcurveto
          hintmask 10110100
          48 callgsubr
          hintmask 11010010
          68 -1 45 -3 0 vvcurveto
          231 callgsubr
          256 vlineto
          49 callgsubr
          hintmask 11001010
          -5 260 callsubr
          hintmask 11010010
          -47 30 callsubr
          hintmask 11001010
          45 -9 rlineto
          hintmask 11010010
          1 -14 6 -33 -52 vvcurveto
          endchar
        </CharString>
        <CharString name="Itilde">
          45 callsubr
          64 266 callgsubr
          135 155 hintmask 10101010
          hintmask 10011010
          360 -38 callgsubr
          -4 254 162 callgsubr
          -101 -69 callsubr
          hintmask 10100110
          43 99 -44 callsubr
        </CharString>
        <CharString name="Itilde.sc">
          36 callgsubr
          74 266 callgsubr
          76 145 hintmask 10100010
          hintmask 10010010
          270 112 callgsubr
          -72 -4 -100 vhcurveto
          hintmask 10100010
          -47 30 callsubr
          hintmask 10010010
          45 -9 rlineto
          hintmask 10100010
          -68 callsubr
          hintmask 01100010
          100 69 12 callsubr
          hintmask 10100010
          33 callsubr
          hintmask 01100010
          256 vlineto
          hintmask 10101010
          49 callgsubr
          -28 254 rmoveto
          0 -22 -38 -18 vhcurveto
          203 callgsubr
          0 25 42 18 vhcurveto
          hintmask 10100110
          226 callsubr
        </CharString>
        <CharString name="J">
          42 callgsubr
          endchar
        </CharString>
        <CharString name="J.sc">
          50 callgsubr
        </CharString>
        <CharString name="Jcircumflex">
          42 callgsubr
          -86 315 -47 callgsubr
          endchar
        </CharString>
        <CharString name="Jcircumflex.sc">
          -252 467 69 4 -20 245 -20 hstemhm
          80 145 hintmask 10110000
          279 469 rmoveto
          hintmask 01110000
          -5 260 callsubr
          hintmask 10110000
          -47 30 callsubr
          hintmask 01110000
          45 -9 rlineto
          hintmask 10110000
          3 -13 4 -34 -52 vvcurveto
          -358 vlineto
          -15 -57 -118 0 vhcurveto
          50 -27 rlineto
          93 81 59 59 28 vvcurveto
          398 vlineto
          6 6 40 2 5 vhcurveto
          -78 300 rmoveto
          155 callsubr
          47 -58 -87 callgsubr
          endchar
        </CharString>
        <CharString name="K">
          189 0 74 -58 -21 631 95 callsubr
          -41 callsubr
          endchar
        </CharString>
        <CharString name="K.sc">
          -91 callsubr
          endchar
        </CharString>
        <CharString name="Kcommaaccent">
          189 0 74 -58 -21 631 95 callsubr
          38 130 -41 callsubr
          -34 -755 rmoveto
          hintmask 01101000
          78 callsubr
          hintmask 10101100
          125 callgsubr
          46 -12 rlineto
          -60 callgsubr
        </CharString>
        <CharString name="Kcommaaccent.sc">
          -91 callsubr
          -25 -595 rmoveto
          hintmask 00110101
          78 callsubr
          hintmask 01010101
          125 callgsubr
          46 -12 rlineto
          -60 callgsubr
        </CharString>
        <CharString name="L">
          -14 callsubr
          endchar
        </CharString>
        <CharString name="L.sc">
          207 callgsubr
          470 163 callgsubr
          58 callsubr
          -231 vlineto
          -63 callgsubr
          vhcurveto
          hintmask 00110100
          217 hlineto
          hintmask 01010100
          120 callgsubr
          hintmask 00110100
          -60 4 rlineto
          hintmask 01010100
          3 callsubr
          256 172 callsubr
        </CharString>
        <CharString name="Lacute">
          -14 callsubr
          -57 269 -54 callsubr
        </CharString>
        <CharString name="Lacute.sc">
          207 callgsubr
          470 69 4 -20 235 -20 hstemhm
          89 145 hintmask 01010110
          hintmask 01001110
          284 112 callgsubr
          -72 -4 -100 vhcurveto
          hintmask 01010110
          -47 -24 -16 callgsubr
          hintmask 01001110
          45 -9 rlineto
          hintmask 10010110
          2 -14 5 -33 -52 -14 callgsubr
          hintmask 00110110
          217 hlineto
          hintmask 01010110
          120 callgsubr
          hintmask 00110110
          -60 4 rlineto
          hintmask 01010110
          3 callsubr
          256 vlineto
          49 callgsubr
          -37 286 -83 callgsubr
          endchar
        </CharString>
        <CharString name="Lcaron">
          3 0 87 -70 -21 339 241 50 95 callsubr
          116 94 0 62 hintmask 10110110
          373 577 rmoveto
          0 18 183 callsubr
          88 305 callsubr
          hintmask 10101110
          -147 133 14 callsubr
        </CharString>
        <CharString name="Lcaron.sc">
          207 callgsubr
          230 241 -1 163 callgsubr
          104 84 hintmask 01001011
          hintmask 01010111
          323 469 rmoveto
          0 18 183 callsubr
          78 305 callsubr
          -145 71 rmoveto
          0 -72 -4 -100 vhcurveto
          hintmask 01001011
          -47 -24 -16 callgsubr
          hintmask 01000111
          45 -9 rlineto
          hintmask 10001011
          2 -14 5 -33 -52 -14 callgsubr
          hintmask 00101011
          217 hlineto
          hintmask 01001011
          120 callgsubr
          hintmask 00101011
          -60 4 rlineto
          hintmask 01001011
          3 callsubr
          256 172 callsubr
        </CharString>
        <CharString name="Lcommaaccent">
          3 0 87 -70 -21 630 95 callsubr
          -36 130 116 62 hintmask 10101000
          hintmask 10011000
          345 29 callgsubr
          vhcurveto
          257 hlineto
          hintmask 10101010
          235 callsubr
          15 176 rlineto
          hintmask 01101010
          27 callsubr
          hintmask 10101010
          59 callsubr
          -111 -755 128 callgsubr
          hintmask 10100100
          46 -12 rlineto
          -60 callgsubr
        </CharString>
        <CharString name="Lcommaaccent.sc">
          207 callgsubr
          470 163 callgsubr
          -43 130 58 callsubr
          -231 vlineto
          -63 callgsubr
          vhcurveto
          hintmask 00110100
          217 hlineto
          hintmask 01010100
          120 callgsubr
          hintmask 00110100
          -60 4 rlineto
          hintmask 01010100
          3 callsubr
          256 vlineto
          49 callgsubr
          -97 -595 128 callgsubr
          hintmask 01010010
          46 -12 rlineto
          -60 callgsubr
        </CharString>
        <CharString name="Ldot">
          3 0 87 -70 -21 305 169 156 95 callsubr
          78 158 -26 62 hintmask 10110110
          432 470 72 callgsubr
          hintmask 10101110
          -87 240 14 callsubr
        </CharString>
        <CharString name="Ldot.sc">
          207 callgsubr
          245 169 56 163 callgsubr
          41 158 hintmask 01011011
          357 411 72 callgsubr
          hintmask 01010111
          -70 129 rmoveto
          0 -72 -4 -100 vhcurveto
          hintmask 01011011
          -47 -24 -16 callgsubr
          hintmask 01010111
          45 -9 rlineto
          hintmask 10011011
          2 -14 5 -33 -52 -14 callgsubr
          hintmask 00111011
          217 hlineto
          hintmask 01011011
          120 callgsubr
          hintmask 00111011
          -60 4 rlineto
          hintmask 01011011
          3 callsubr
          256 172 callsubr
        </CharString>
        <CharString name="Lslash">
          3 0 87 -70 -21 498 -20 152 95 callsubr
          210 62 hintmask 10110100
          hintmask 10101100
          345 2 callgsubr
          hintmask 10110100
          -93 callsubr
          hintmask 10101100
          65 -12 rlineto
          hintmask 01110100
          2 -16 7 -45 -50 vvcurveto
          -134 vlineto
          -94 -34 22 -60 72 26 rlineto
          -147 vlineto
          -20 -8 -56 -1 128 callsubr
          5 47 vhcurveto
          257 hlineto
          hintmask 10110110
          235 callsubr
          15 176 rlineto
          hintmask 01110110
          27 callsubr
          hintmask 10110110
          -94 hlineto
          -3 21 -5 43 42 vvcurveto
          173 vlineto
          185 68 -22 60 -163 -60 rlineto
          108 vlineto
          2 callsubr
          endchar
        </CharString>
        <CharString name="Lslash.sc">
          207 callgsubr
          470 163 callgsubr
          58 callsubr
          -88 vlineto
          -90 -32 20 -53 70 25 rlineto
          -83 vlineto
          -63 callgsubr
          vhcurveto
          hintmask 00110100
          217 hlineto
          hintmask 01010100
          120 callgsubr
          hintmask 00110100
          -60 4 rlineto
          hintmask 01010100
          3 callsubr
          112 vlineto
          135 49 -19 54 -116 -42 rlineto
          83 172 callsubr
        </CharString>
        <CharString name="M">
          418 0 71 -55 -21 690 20 5 -20 hstemhm
          37 906 -904 191 hintmask 10101000
          665 705 rmoveto
          -20 -20 rlineto
          0 -33 -113 -8 -23 vhcurveto
          -112 -328 -103 313 rlineto
          -12 37 -31 114 0 vvcurveto
          -20 20 rlineto
          -141 hlineto
          -43 -63 5 0 hvcurveto
          hintmask 10011000
          -5 -72 67 -12 rlineto
          3 -18 3 -27 -12 vvcurveto
          -28 -437 rlineto
          hintmask 01100100
          -3 -13 -6 -27 -5 -18 -68 -12 rcurveline
          5 -67 rlineto
          0 59 5 42 108 46 -5 0 vhcurveto
          hintmask 10100100
          6 73 -68 6 rlineto
          hintmask 01100100
          -2 23 -2 43 22 vvcurveto
          hintmask 10100100
          19 356 179 -518 rlineto
          92 hlineto
          184 518 16 -356 rlineto
          -22 -2 -43 -2 -23 vhcurveto
          -67 -12 5 -67 rlineto
          hintmask 01101000
          0 61 5 42 108 72 80 callgsubr
          73 -67 6 rlineto
          hintmask 10101000
          -4 18 -7 27 -2 13 -32 437 rcurveline
          hintmask 01101000
          13 1 27 2 18 vhcurveto
          hintmask 10011000
          64 11 -4 72 rlineto
          0 -80 -5 -52 vhcurveto
          endchar
        </CharString>
        <CharString name="M.sc">
          222 0 60 -43 -21 525 14 -14 15 4 -20 hstemhm
          38 160 364 181 hintmask 10100110
          hintmask 10010110
          512 536 rmoveto
          hintmask 10100110
          -15 -15 rlineto
          0 -21 -81 -6 -18 vhcurveto
          -76 -235 -68 221 rlineto
          -10 33 -19 80 0 vvcurveto
          -16 14 rlineto
          -143 hlineto
          hintmask 10001110
          -42 1 -26 4 0 vvcurveto
          -4 -63 45 -9 rlineto
          3 -15 3 -14 -7 vvcurveto
          -23 -332 -2 -8 -2 -15 -5 -15 rlinecurve
          -48 -8 rlineto
          hintmask 01100110
          3 -58 rlineto
          0 34 4 42 vhcurveto
          hintmask 10100110
          95 33 -4 0 hvcurveto
          5 62 rlineto
          hintmask 01100110
          -48 4 rlineto
          hintmask 10100110
          -2 20 0 27 14 vvcurveto
          12 243 122 -366 rlineto
          93 hlineto
          128 366 8 -243 rlineto
          -14 -1 -26 -2 -21 vhcurveto
          -47 -8 4 -58 rlineto
          0 31 4 42 vhcurveto
          hintmask 01100110
          94 58 -4 0 hvcurveto
          4 62 rlineto
          hintmask 10100110
          -46 4 -4 15 -4 15 -1 8 rlinecurve
          hintmask 01100110
          -24 332 rlineto
          hintmask 10001110
          9 1 12 1 16 vhcurveto
          43 10 -3 61 rlineto
          0 -64 -4 -28 vhcurveto
          endchar
        </CharString>
        <CharString name="N">
          -76 callsubr
          endchar
        </CharString>
        <CharString name="N.sc">
          80 175 callsubr
          15 220 callsubr
          hintmask 10011100
          -84 5 rlineto
          hintmask 10101100
          35 callgsubr
          hintmask 10011100
          160 callgsubr
          hintmask 10101100
          28 callsubr
          4 -62 rlineto
          hintmask 01101100
          182 callsubr
          hintmask 10101100
          303 callsubr
          hintmask 01101100
          283 callgsubr
          hintmask 10101100
          26 callsubr
          endchar
        </CharString>
        <CharString name="Nacute">
          -76 callsubr
          -261 269 -54 callsubr
        </CharString>
        <CharString name="Nacute.sc">
          80 175 callsubr
          15 219 -20 hstemhm
          92 122 235 121 hintmask 10101110
          617 112 callgsubr
          -69 -4 -63 vhcurveto
          hintmask 10011110
          -84 5 rlineto
          hintmask 10101110
          35 callgsubr
          hintmask 10011110
          160 callgsubr
          hintmask 10101110
          28 callsubr
          4 -62 rlineto
          hintmask 01101110
          182 callsubr
          hintmask 10101110
          303 callsubr
          hintmask 01101110
          283 callgsubr
          hintmask 10101110
          26 callsubr
          -203 289 -83 callgsubr
          endchar
        </CharString>
        <CharString name="Ncaron">
          -76 callsubr
          -230 270 -44 callgsubr
        </CharString>
        <CharString name="Ncaron.sc">
          80 175 callsubr
          15 171 -20 78 -20 hstemhm
          92 122 235 121 hintmask 10101111
          617 112 callgsubr
          -69 -4 -63 vhcurveto
          hintmask 10011111
          -84 5 rlineto
          hintmask 10101111
          35 callgsubr
          hintmask 10011111
          160 callgsubr
          hintmask 10101111
          28 callsubr
          4 -62 rlineto
          hintmask 01101111
          182 callsubr
          hintmask 10101111
          303 callsubr
          hintmask 01101111
          283 callgsubr
          hintmask 10101111
          26 callsubr
          -446 299 -88 callgsubr
          endchar
        </CharString>
        <CharString name="Ncommaaccent">
          240 0 74 -58 -21 628 82 -79 84 -25 20 302 callsubr
          86 130 117 127 hintmask 10010101
          132 callgsubr
          hintmask 10001101
          -100 5 rlineto
          hintmask 10010101
          -5 -75 rlineto
          hintmask 10100101
          17 callsubr
          hintmask 10001101
          -19 20 rlineto
          -102 hlineto
          -93 callsubr
          hintmask 10010101
          65 -12 rlineto
          hintmask 01100101
          -22 callgsubr
          hintmask 10010101
          152 callgsubr
          hintmask 01010101
          257 vlineto
          hintmask 10010111
          280 callgsubr
          135 542 hlineto
          151 callsubr
          -449 -755 180 callgsubr
          -60 callgsubr
        </CharString>
        <CharString name="Ncommaaccent.sc">
          80 175 callsubr
          15 hstemhm
          92 122 60 130 45 121 hintmask 10101010
          617 112 callgsubr
          -69 -4 -63 vhcurveto
          hintmask 10011010
          -84 5 rlineto
          hintmask 10101010
          35 callgsubr
          hintmask 10011010
          160 callgsubr
          hintmask 10101010
          28 callsubr
          4 -62 rlineto
          hintmask 01101010
          182 callsubr
          hintmask 10101010
          303 callsubr
          hintmask 01101010
          283 callgsubr
          hintmask 10101110
          26 callsubr
          -347 -592 180 callgsubr
          -60 callgsubr
        </CharString>
        <CharString name="Ntilde">
          240 0 74 -58 -21 628 82 -79 84 -25 20 49 91 -53 91 302 callsubr
          333 127 hintmask 1001010110000000
          132 callgsubr
          hintmask 1000110110000000
          -100 5 rlineto
          hintmask 1001010110000000
          -5 -75 314 callgsubr
          17 callsubr
          hintmask 1000110110000000
          -19 20 rlineto
          -102 hlineto
          -93 callsubr
          hintmask 1001010110000000
          65 -12 rlineto
          hintmask 0110010110000000
          -22 callgsubr
          hintmask 1001010110000000
          152 callgsubr
          hintmask 0101010110000000
          257 vlineto
          hintmask 1001010110000000
          280 callgsubr
          135 542 hlineto
          151 callsubr
          -228 254 162 callgsubr
          -101 -69 callsubr
          hintmask 1001001110000000
          43 99 -44 callsubr
        </CharString>
        <CharString name="Ntilde.sc">
          80 175 callsubr
          15 58 266 callgsubr
          92 122 235 121 hintmask 10101011
          617 112 callgsubr
          -69 -4 -63 vhcurveto
          hintmask 10011011
          -84 5 rlineto
          hintmask 10101011
          35 callgsubr
          hintmask 10011011
          160 callgsubr
          hintmask 10101011
          28 callsubr
          4 -62 rlineto
          hintmask 01101011
          182 callsubr
          hintmask 10101011
          303 callsubr
          hintmask 01101011
          283 callgsubr
          hintmask 10101011
          26 callsubr
          -167 257 rmoveto
          0 -22 -38 -24 vhcurveto
          201 callsubr
          hintmask 10100111
          115 callgsubr
          43 45 101 0 hvcurveto
          endchar
        </CharString>
        <CharString name="O">
          206 -19 97 549 97 hstem
          27 180 354 180 vstem
          -106 callsubr
          endchar
        </CharString>
        <CharString name="O.sc">
          78 callgsubr
          hstem
          19 168 237 168 vstem
          -105 callgsubr
          endchar
        </CharString>
        <CharString name="OE">
          443 -19 97 -78 87 -70 -21 323 79 225 82 -78 97 -9 -20 176 callgsubr
          345 145 130 124 callsubr
          hintmask 0101100111010000
          1003 190 rmoveto
          -70 5 -2 -16 -6 -26 -4 -15 rlinecurve
          -3 -10 -6 -15 -10 -18 rrcurveto
          -4 -20 -28 -4 -29 hhcurveto
          -125 hlineto
          -1 20 -2 48 38 vvcurveto
          125 vlineto
          1 7 21 0 3 hhcurveto
          31 156 callsubr
          -56 hlineto
          -5 -11 0 1 -10 hvcurveto
          143 vlineto
          16 3 47 1 18 vhcurveto
          hintmask 0101100111100000
          110 hlineto
          30 29 -2 -2 20 hvcurveto
          5 -8 4 -12 1 -4 4 -15 3 -28 2 -16 72 5 rcurveline
          hintmask 0101001111100000
          -7 156 -19 18 rlineto
          0 -94 -10 -20 vhcurveto
          hintmask 0101100111010000
          -268 hlineto
          -21 -30 2 1 -22 hvcurveto
          11 -35 -39 5 -42 hhcurveto
          hintmask 1001010111010000
          -217 -140 -146 -226 -225 140 -146 217 42 39 5 11 36 hvcurveto
          72 3 rlineto
          hintmask 0101100111010000
          282 hlineto
          235 callsubr
          rlineto
          hintmask 0011100111010000
          -436 182 rmoveto
          -72 -33 -36 -46 -99 hhcurveto
          -120 -57 88 186 hvcurveto
          hintmask 1001010111010000
          187 57 88 120 99 25 -34 -57 44 vhcurveto
          endchar
        </CharString>
        <CharString name="OE.sc">
          229 -16 92 -76 79 155 71 7 46 102 92 -89 73 7 -20 hstemhm
          19 168 254 133 80 56 12 58 -40 54 hintmask 0110010111000000
          hintmask 0110010111010000
          800 155 rmoveto
          -60 4 -1 -13 -3 -15 -4 -11 rlinecurve
          -2 -8 -4 -12 -7 -16 rrcurveto
          -3 -15 -19 -2 -22 hhcurveto
          -88 hlineto
          -1 15 0 36 28 vvcurveto
          76 vlineto
          hintmask 0110010111000000
          34 hlineto
          16 27 -5 0 hvcurveto
          7 -43 56 5 rlineto
          hintmask 0101010111000000
          0 -3 66 38 vvcurveto
          15 1 46 0 vhcurveto
          -54 4 -7 -48 rlineto
          hintmask 0110010111000000
          0 -12 -7 -15 vhcurveto
          -50 109 hlineto
          3 2 40 6 vvcurveto
          hintmask 0110010111100000
          76 hlineto
          hintmask 0110100111100000
          24 22 -1 -2 14 hvcurveto
          2 -4 1 -8 1 -2 3 -11 1 -24 2 -12 61 4 rcurveline
          hintmask 0110001111100000
          -5 127 -15 13 rlineto
          0 -72 -7 -16 vhcurveto
          hintmask 0110010111000000
          -224 hlineto
          -19 -16 1 1 -14 hvcurveto
          10 -29 -33 4 -35 hhcurveto
          hintmask 1010100111000000
          -167 -119 -109 -175 -175 119 -109 167 35 33 4 10 30 hvcurveto
          11 12 1 1 25 hvcurveto
          hintmask 0110010111010000
          235 hlineto
          16 72 -3 0 hvcurveto
          15 14 rlineto
          -348 175 rmoveto
          -67 -25 -21 -43 -90 hhcurveto
          hintmask 1010100111000000
          -80 -38 45 147 147 38 45 80 91 8 -29 -48 37 hvcurveto
          endchar
        </CharString>
        <CharString name="Oacute">
          206 -19 97 549 97 hstem
          27 180 354 180 vstem
          -106 callsubr
          296 556 -54 callsubr
        </CharString>
        <CharString name="Oacute.sc">
          78 callgsubr
          203 -89 callgsubr
          214 487 -83 callgsubr
          endchar
        </CharString>
        <CharString name="Obreve">
          111 callgsubr
          19 76 176 callgsubr
          22 272 callgsubr
          24 180 hintmask 11010010
          -106 callsubr
          hintmask 11111110
          264 546 rmoveto
          -50 callgsubr
          endchar
        </CharString>
        <CharString name="Obreve.sc">
          78 callgsubr
          22 76 hstemhm
          19 168 -37 272 callgsubr
          -34 168 hintmask 11010010
          -105 callgsubr
          hintmask 11101100
          205 461 rmoveto
          -50 callgsubr
          endchar
        </CharString>
        <CharString name="Ocaron">
          206 -19 97 549 97 hstem
          27 180 354 180 vstem
          -106 callsubr
          327 577 -44 callgsubr
        </CharString>
        <CharString name="Ocaron.sc">
          78 callgsubr
          155 -20 78 -89 callgsubr
          -29 497 -88 callgsubr
          endchar
        </CharString>
        <CharString name="Ocircumflex">
          206 -19 97 549 97 hstem
          27 180 354 180 vstem
          -106 callsubr
          176 586 -47 callgsubr
          endchar
        </CharString>
        <CharString name="Ocircumflex.sc">
          78 callgsubr
          213 -89 callgsubr
          117 497 rmoveto
          155 callsubr
          47 -58 -87 callgsubr
          endchar
        </CharString>
        <CharString name="Ocircumflexacute">
          206 -19 97 549 97 hstem
          27 180 354 180 vstem
          -106 callsubr
          180 138 callsubr
          44 221 -8 callsubr
        </CharString>
        <CharString name="Ocircumflexacute.sc">
          78 callgsubr
          164 -20 63 -89 callgsubr
          112 137 callgsubr
          44 221 -8 callsubr
        </CharString>
        <CharString name="Ocircumflexdotbelow">
          206 135 callgsubr
          46 205 callgsubr
          98 154 102 180 vstem
          -106 callsubr
          176 586 -47 callgsubr
          -199 -870 -80 callgsubr
          endchar
        </CharString>
        <CharString name="Ocircumflexdotbelow.sc">
          49 135 callgsubr
          49 92 384 92 213 -20 55 callgsubr
          117 497 rmoveto
          155 callsubr
          47 -58 -87 callgsubr
          -193 -687 -80 callgsubr
          endchar
        </CharString>
        <CharString name="Ocircumflexgrave">
          206 -19 97 549 97 hstem
          27 180 354 180 vstem
          -106 callsubr
          178 138 callsubr
          45 98 -6 callsubr
          endchar
        </CharString>
        <CharString name="Ocircumflexgrave.sc">
          78 callgsubr
          164 -20 63 -89 callgsubr
          112 137 callgsubr
          45 98 -6 callsubr
          endchar
        </CharString>
        <CharString name="Ocircumflexhookabove">
          111 callgsubr
          212 45 176 callgsubr
          299 59 -18 72 -58 180 hintmask 11010010
          -106 callsubr
          178 138 callsubr
          hintmask 11110100
          12 194 rmoveto
          -53 callsubr
          hintmask 11011000
          -12 callgsubr
          hintmask 11110100
          65 callsubr
          endchar
        </CharString>
        <CharString name="Ocircumflexhookabove.sc">
          78 callgsubr
          207 -20 28 45 hstemhm
          19 168 226 59 -48 168 -138 72 hintmask 11101010
          -105 callgsubr
          105 137 callgsubr
          hintmask 11111001
          12 194 rmoveto
          -53 callsubr
          hintmask 11101100
          -12 callgsubr
          hintmask 11111001
          65 callsubr
          endchar
        </CharString>
        <CharString name="Ocircumflextilde">
          111 callgsubr
          165 69 -44 68 176 callgsubr
          354 180 hintmask 11101100
          -106 callsubr
          176 524 157 callsubr
          0 -32 -24 -24 vhcurveto
          hintmask 11011100
          -36 -47 24 -36 hhcurveto
          23 callgsubr
          hintmask 11101100
          66 callgsubr
          endchar
        </CharString>
        <CharString name="Ocircumflextilde.sc">
          78 callgsubr
          155 -20 33 69 -44 68 hstemhm
          19 168 237 168 hintmask 11101110
          -105 callgsubr
          115 439 293 callgsubr
          29 -52 63 30 8 3 37 11 26 7 rlinecurve
          26 -7 37 -11 8 -3 63 -30 rcurveline
          29 52 rlineto
          hintmask 11110110
          -57 193 291 callsubr
          hintmask 11101110
          -36 -47 24 -36 hhcurveto
          23 callgsubr
          hintmask 11110110
          66 callgsubr
          endchar
        </CharString>
</ttFont>
